<svg id="Calque_1" data-name="Calque 1" xmlns="http://www.w3.org/2000/svg" viewBox="0 0 800 433.66"><defs><style>.cls-1{fill:#fff;}.cls-2{fill:#1d1d1b;}.cls-3{fill:#2863ab;}.cls-4{fill:#408ccb;}.cls-5{fill:#cecccc;}</style></defs><title>Plan de travail 1 copie</title><path class="cls-1" d="M6.6,323.93s0-95.78,63.7-95.78C89.69,193,47.66,141.58,126.71,62.53,183.52,5.71,179.2-15,241.77,11.29s49.44,52.62,73.31,52.62,85.47-4.15,133.28-9.69S614.49,51.45,663,68.07s66.49,91.49,66.49,126.52c0,44.35,67.88,64.82,59.57,122.68s-15,116.39-145.43,116.39H106.49S6.6,428.84,6.6,323.93Z"/><path class="cls-2" d="M483.57,288.43a32.83,32.83,0,0,1-37.2,27.77,32.42,32.42,0,0,1-4.1-.87l-1.58,10.86a35.26,35.26,0,0,1,4.19.33,32.83,32.83,0,0,1,27.77,37.2,34.28,34.28,0,0,1-.88,4.1l10.87,1.58a31.38,31.38,0,0,1,.33-4.19,32.82,32.82,0,0,1,37.19-27.77,34.45,34.45,0,0,1,4.11.88l1.57-10.87a31.23,31.23,0,0,1-4.18-.33,32.8,32.8,0,0,1-26.9-41.3l-10.86-1.57A34.93,34.93,0,0,1,483.57,288.43Z"/><path class="cls-2" d="M638.16,296.37c9.61,15.78,4.27,36.58-11.94,46.45a37,37,0,0,1-3.89,2l5.82,9.56a35.59,35.59,0,0,1,3.6-2.52c16.21-9.87,37.13-5.06,46.74,10.73a31.1,31.1,0,0,1,2,3.79l9.82-6a31.39,31.39,0,0,1-2.47-3.5c-9.62-15.79-4.27-36.58,11.93-46.45a37,37,0,0,1,3.89-2l-5.82-9.56a36.07,36.07,0,0,1-3.6,2.52c-16.2,9.86-37.13,5.06-46.74-10.73a33.52,33.52,0,0,1-2-3.8l-9.81,6A34.25,34.25,0,0,1,638.16,296.37Z"/><path class="cls-2" d="M295.37,289.66a32.81,32.81,0,0,1-33,36.64l1.28,10.9a34.6,34.6,0,0,1,4.13-.76,32.73,32.73,0,0,1,36.64,33l10.91-1.28a31,31,0,0,1-.76-4.13,32.73,32.73,0,0,1,33-36.64l-1.29-10.91a30.73,30.73,0,0,1-4.13.76,32.8,32.8,0,0,1-36.64-33l-10.9,1.29A34.24,34.24,0,0,1,295.37,289.66Z"/><path class="cls-2" d="M150.74,296.24a32.77,32.77,0,0,1-49.19-3.16l-7.76,7.77A32.72,32.72,0,0,1,97,350a34.23,34.23,0,0,1-3.16,2.77l7.76,7.76a35.59,35.59,0,0,1,2.77-3.16,32.84,32.84,0,0,1,46.42,0,35.59,35.59,0,0,1,2.77,3.16l7.76-7.76a35.59,35.59,0,0,1-3.16-2.77,32.84,32.84,0,0,1,0-46.42,33.92,33.92,0,0,1,3.16-2.76l-7.76-7.77A33,33,0,0,1,150.74,296.24Z"/><path d="M218.68,112c-2.47.31-4.93.64-7.4.91-1.29.14-2.81.64-3.42-1.12a2.4,2.4,0,0,1,1.67-3.19c4.92-1.84,8-5.9,11.33-9.52,5.37-5.84,12-8.49,19.69-9.65S256,86.62,263.71,85.2c1.63-.29,3.58-1.38,4.73.54,1.44,2.38-1.12,2.75-2.34,3.68a16.46,16.46,0,0,0-4.48,5.15c-6,10.63-14.78,16.82-27.41,16.9-5.17,0-10.37.23-15.53.55Zm.35-4.57c19.67,1.27,33.83-1.64,38.9-15.9C243.35,93.15,228.37,92.28,219,107.45Z"/><path class="cls-3" d="M493.58,173.29c-1.64,7.92-2.45,16-3.49,23.9-2.5,13,3,21.07,7.66,25.65,4.07,4,9.64,2.8,14.49-1.27a39.94,39.94,0,0,0,11.68-15.5c1.46-3.58,4-6.36,6-10.83a51.3,51.3,0,0,0,11.43,18.53c17.36,17.71,48.25,4.11,45.6-21-.11-2.34-1.37-3.76-2.71-5.36-5.41-6.46-12.59-10.4-19.81-14.42-8.08-4.5-16.23-9.25-22.77-15.73-7.88-7.81-8-21.56-1.94-33.33,7.46-14.51,19.39-19.75,35.43-20.66,9.83-.56,15.86,3.08,22.12,9,0,0,14,13.87,2.38,25.52-4.5,4-6.48,4-9.45,1.64-2.08-1.64-3.25-5-4.91-7.6-6.71-10.43-20.35-11.33-28.52-1.77-2.63,3.07-2.42,6.58-.49,10.15,16.27,29.17,58.13,24,55.79,65.42-.55,8.78-5,16-9.93,22.74a58.54,58.54,0,0,0-4.34,6.22c-5.47,10.05-14.49,12.83-24.8,12-4.92-.4-9.64.3-14.43.53-11.24,1.1-21.08-7-26.57-16.35-1.26-2.26-3.93-2.94-6.48-.59-4.37,4-8.84,8-13.42,11.78-5.13,4.25-10.91,6-17.62,4.27-4-1-8.22,0-12.3-1.4-10.68-3.73-15.86-12.54-15.86-22.35V208.6c0-16.66.62-25.82,1-38.73a77,77,0,0,1,3.91-20.79c1.11-3.56,2.45-4,7.9-6.22,9.85-2.21,14.88-3.9,22.22-5.35"/><path class="cls-4" d="M270.45,250.44c-10.43,1.3-11.22,1.41-17.13.95C207,248.9,192.15,245,164,224.27c-8.34-5.8-7.08-11.71-7.06-20.74.07-21.35,5.8-41,19.45-57.88,6.23-7.71,14.69-12.13,23.75-14.91,21.72-6.94,60.31-11.24,63.68,19.87,2.14,17-6.29,31.12-24,33-12.58,1.56-25.09,1.07-36.72-5.12-2.43-1.29-4.51-.75-6.83,1.09-8.19,6.47-11.64,17.26-8.11,26.92,2.18,6,7.57,7.38,12.87,9.16,12.3,4.13,24.68,2.92,37.07.92,3-.49,4.31.35,5.75,3.08C250.22,231.64,258.42,242.12,270.45,250.44Zm-43.94-85.28h9.69c1.23,0,2.73.48,3.51-.73,3-4.7,2.36-9.63.25-14.38-1.75-4-3.9-7.83-9.13-7.79-12.38.08-18.7,7.18-23.33,17.8-1.42,3.26.16,4.4,3.45,4.69A130.42,130.42,0,0,0,226.51,165.16Z"/><path class="cls-3" d="M617.93,116.41c16.35-14.82,43.61-12.44,52.24,12.53,2.82,7.36,2.81,7.36-5,9.24-9,2.16-9,2.19-14.13-5.78-5.46-8.57-18.93-12.81-26.82-.79a12.09,12.09,0,0,0,.43,13.43c5.23,7.32,12.52,12,20.26,16.15,5.13,2.74,10.23,5.55,15.41,8.18,19.61,10,23.1,30.21,13.45,48.56-6.45,12.28-17.39,14.44-28.39,17.9-13.21,4.16-23.93,5.66-40.54,8-6.09.53-8.74.17-13.94.17,3.19-3.78,5.74-7.14,8.64-10.17,4.06-4.26,6.31-9.65,9.46-14.48,1.64-2.52,3.43-3.13,6.45-2.8,6.8.74,13.5,2.88,20.52.86,15.44-4.46,23.62-12.67,19.58-29.66-3.49-13.28-27.31-16.56-38.34-22.36-8.23-3.84-11.85-11-14.52-19"/><path class="cls-3" d="M617,115c16.2-15,44.59-11,53.22,14,2.82,7.36,2.81,7.36-5,9.24-9,2.16-9,2.19-14.13-5.78-5.46-8.57-18.93-12.81-26.82-.79a12.09,12.09,0,0,0,.43,13.43c5.23,7.32,12.52,12,20.26,16.15,5.13,2.74,10.23,5.55,15.41,8.18,19.61,10,23.1,30.21,13.45,48.56-6.45,12.28-17.39,14.44-28.39,17.9-13.21,4.16-23.93,5.66-40.54,8-6.09.53-8.74.17-13.94.17,3.19-3.78,5.74-7.14,8.64-10.17,4.06-4.26,6.31-9.65,9.46-14.48,1.64-2.52,3.43-3.13,6.45-2.8,6.8.74,13.5,2.88,20.52.86,15.44-4.46,23.62-12.67,19.58-29.66-3.49-13.28-27.31-16.56-38.34-22.36-8.23-3.84-11.85-11-14.52-19C602.69,146.41,602.67,127.83,617,115Z"/><path class="cls-3" d="M418.93,131.1c1-5.12,1.17-5.82,2.72-13.6a127,127,0,0,0,2.41-14.19c.33-2-.16-3.27,2.35-4,6.19-1.75,12.21-3.6,18.52-4.58,3.79-.58,5.28.69,4.14,4.57-7.35,25-12.82,50.56-23.93,74.47-4.64,10-7.45,21-11.46,31.37-1.62,4.19,1.25,8.69,5.65,10.2,14.19,4.86,28.87,7.59,43.55,10.36,1.79.34,3,1,3.34,2.68,1.5,6.71,4.29,12.66,9.44,17.39.38.35.23,1.28.46,2.91-18-.28-35.46.08-53-3.81-17.23-3.82-32.44-7.87-51.44-13.09,4.3-4.83,8.92-8.35,13.1-12.38a83,83,0,0,0,24.08-42.77c.52-2.35,1.47-4.61,1.95-6.87"/><path class="cls-3" d="M411.37,143.33c6-.49,7.21-1.72,6.62-7.62-1.25-12.65-4.91-24.39-14.79-33.18a26.43,26.43,0,0,0-7.76-4.86,45.3,45.3,0,0,0-19.19-3.2c-10.72.52-19.13,1.2-30.59,7.78a83.5,83.5,0,0,0-28.94,35.23c-1,2.21-.14,3.27,1.29,4.23,5.19,3.46,8.8,8.41,12.7,13.1,2,2.35,3.7,2.24,5.09-.51a64.86,64.86,0,0,0,3.06-6.55c6.35-13.69,13.87-22.26,26.51-27.9,14.75-6.82,28.78,4.54,29.9,19.62.07,2.76.89,3.83,4.17,3.9,2.24-.09,3.8,0,5.7,0Z"/><path class="cls-3" d="M340.54,239.77c11.53.79,17,1.11,29-7.5,13.85-10,25.11-22,32.4-37.69,3.88-8.36,6.06-15.88,9.52-26,.29-2.59-2.17-2.71-4.1-3-9.23-1.41-9.23-1.41-21.74-2.85-12.85-1.93-13.16.12-15.65,8.76-.72,2.48-.87,3.34-2.1,7.21a67.63,67.63,0,0,0,8.57.64c5.91,0,8.19,2.68,7.27,5.22-2.67,7.38-5.11,15.14-12,20-7.7,5.39-16,4.48-24.16,1.21-3.15-1.26-4.8-1.11-5.73,2.33-1.8,6.65-5.41,12.48-8.83,18.35,0,0-4.89,8-6.59,10.94C328.15,238.4,340.54,239.77,340.54,239.77Z"/><path class="cls-4" d="M219,107.45c9.34-15.17,24.32-14.3,38.9-15.9C252.86,105.81,238.7,108.72,219,107.45Z"/><path class="cls-5" d="M126.71,245.7a81.51,81.51,0,1,0,81.5,81.5A81.5,81.5,0,0,0,126.71,245.7Zm0,124.11a42.61,42.61,0,1,1,42.6-42.61A42.61,42.61,0,0,1,126.71,369.81Z"/><path class="cls-2" d="M126.71,410.14a82.94,82.94,0,1,1,82.94-82.94A83,83,0,0,1,126.71,410.14Zm0-163a80.07,80.07,0,1,0,80.07,80.07A80.16,80.16,0,0,0,126.71,247.13Zm0,124.11a44,44,0,1,1,44-44A44.09,44.09,0,0,1,126.71,371.24Zm0-85.21a41.17,41.17,0,1,0,41.17,41.17A41.22,41.22,0,0,0,126.71,286Z"/><path class="cls-5" d="M305,245.7A81.5,81.5,0,0,0,223.59,323c-.07,1.39-.11,2.78-.11,4.19a81.51,81.51,0,1,0,163,0q0-3.15-.23-6.24A81.51,81.51,0,0,0,305,245.7Zm41,70a42.61,42.61,0,1,1-82.95,3.76c.91-5,3.17-3.64,5.64-7.84"/><path class="cls-2" d="M305,410.14a83,83,0,0,1-82.94-82.94c0-1.42,0-2.85.11-4.27A82.86,82.86,0,0,1,305,244.26c43.12,0,79.44,33.65,82.69,76.59.16,2.1.24,4.24.24,6.35A83,83,0,0,1,305,410.14Zm0-163a80,80,0,0,0-80,75.95c-.07,1.36-.11,2.75-.11,4.12a80.08,80.08,0,0,0,160.15,0c0-2-.08-4.1-.23-6.13C381.69,279.61,346.62,247.13,305,247.13Zm0,124.11a44.08,44.08,0,0,1-43.32-52,7.54,7.54,0,0,1,3.23-5.45,9.08,9.08,0,0,0,2.58-2.85l2.47,1.44a11.71,11.71,0,0,1-3.28,3.66,4.81,4.81,0,0,0-2.18,3.72,41.17,41.17,0,1,0,80.16-3.64l2.76-.77A44.09,44.09,0,0,1,305,371.24Z"/><path class="cls-5" d="M483.27,245.7a81.51,81.51,0,1,0,81.5,81.5A81.5,81.5,0,0,0,483.27,245.7Zm0,124.11a42.61,42.61,0,1,1,42.6-42.61A42.61,42.61,0,0,1,483.27,369.81Z"/><path class="cls-2" d="M483.27,410.14A82.94,82.94,0,1,1,566.2,327.2,83,83,0,0,1,483.27,410.14Zm0-163a80.07,80.07,0,1,0,80.07,80.07A80.16,80.16,0,0,0,483.27,247.13Zm0,124.11a44,44,0,1,1,44-44A44.09,44.09,0,0,1,483.27,371.24Zm0-85.21a41.17,41.17,0,1,0,41.17,41.17A41.22,41.22,0,0,0,483.27,286Z"/><path class="cls-5" d="M661.55,245.7a81.51,81.51,0,1,0,81.5,81.5A81.5,81.5,0,0,0,661.55,245.7Zm0,124.11a42.61,42.61,0,1,1,42.6-42.61A42.61,42.61,0,0,1,661.55,369.81Z"/><path class="cls-2" d="M661.55,410.14a82.94,82.94,0,1,1,82.93-82.94A83,83,0,0,1,661.55,410.14Zm0-163a80.07,80.07,0,1,0,80.07,80.07A80.16,80.16,0,0,0,661.55,247.13Zm0,124.11a44,44,0,1,1,44-44A44.09,44.09,0,0,1,661.55,371.24Zm0-85.21a41.17,41.17,0,1,0,41.17,41.17A41.22,41.22,0,0,0,661.55,286Z"/><path class="cls-2" d="M252.68,254.06l-.28,0c-8.77-.37-17-.83-24.94-1.71-21.12-2-39-6.33-59.85-21.7l-.57-.4-1.92-1.39,0-.07c-7.26-6.05-11.52-14.6-11.49-23.37.06-22.52,7.24-43.26,20.75-60,5.75-7.12,13.8-12.19,24.62-15.5,17.14-5.48,40.36-8.15,54.11.79C260,135.19,264,142.11,265,151.29c1.22,9.62-.87,18.44-5.9,24.79-4.57,5.79-11.38,9.31-19.67,10.2-15.35,1.91-27.35.22-37.74-5.31-1.38-.73-2.68-.84-4.88.91-7.73,6.1-10.76,16.11-7.55,24.91,1.74,4.75,5.88,6.12,10.69,7.71l1.08.36c12.41,4.17,25.2,2.62,36.21.85,4.21-.68,6.08,1.11,7.62,4,5.61,10.64,12.53,21.67,25,30.3l4.4,3-5.35.22c-5.75.23-8,.38-9.7.5s-2.91.2-6.49.28Zm-27.75-5.59c7.14.78,14.64,1.22,22.75,1.7l5.06.31c3.44-.08,4.56-.16,6.24-.27h0c1.09-.08,2.44-.17,4.81-.29-10.67-8.62-17.13-19.15-22.08-28.52-1.14-2.16-1.75-2.5-3.88-2.16-11.43,1.85-24.73,3.44-37.92-1l-1.07-.35c-5-1.64-10.59-3.5-12.92-9.89-3.74-10.24-.25-21.88,8.69-28.94,1.92-1.52,4.93-3.31,8.78-1.26,9.71,5.17,21,6.73,35.65,4.92,7.35-.79,13.31-3.86,17.28-8.87,4.42-5.59,6.25-13.46,5.15-22.15-.88-8.09-4.33-14.14-10.27-18-12.7-8.26-34.72-5.61-51.09-.37-10.13,3.09-17.62,7.78-22.91,14.32-13,16.1-19.89,36.07-20,57.76,0,8.37,4.45,16.55,12,22l.42.3,0,0h0C188.34,240.89,205.4,246.07,224.93,248.47Zm12.35-80.55a9.57,9.57,0,0,1-1-.06l-.7,0h-9.66a132.8,132.8,0,0,1-15.74-.42c-1.66-.15-4-.56-5.08-2.38-.76-1.28-.71-2.85.14-4.81,3.81-8.73,10.09-18.77,25-18.88h.09c6.77,0,9.32,5.76,10.69,8.86,2.74,6.18,2.62,11.44-.38,16.08A3.68,3.68,0,0,1,237.28,167.92Zm-1.68-3.67c.31,0,.64,0,1,.05a4.19,4.19,0,0,0,1.07,0c2.28-3.56,2.31-7.59.07-12.65-1.94-4.39-3.77-6.76-7.48-6.73-10.27.08-16.56,4.92-21.71,16.73-.44,1-.39,1.46-.34,1.55s.3.47,2.32.65a130.52,130.52,0,0,0,15.35.4h9.74Z"/><path class="cls-4" d="M241.16,185.69c13.27-1.31,23.42-15.14,23.39-26.18,0-7.32.33-12.49-3.56-19.35-1.17-2.08-.35-4.21,2.7-5.09a72.58,72.58,0,0,1,18.66-2.62c38.71-3.72,67.28,34.19,60.34,70.46-2.62,17.55-13.36,31.9-26.13,44.24a9.2,9.2,0,0,1-6,2.14c-11.08.67-27.09,1.5-38.16,2.35-5.52.42-5.64-2.72-9.28-5.49-10.87-8.28-15.52-16.44-21.3-28.55C236.25,205.84,241.16,185.69,241.16,185.69Zm48.19,31.72c16.12,1.92,24.52-11.12,24-23.94-.37-9.08-11.71-24.66-20.34-27.74a9.35,9.35,0,0,0-5.77.13c-13.5,3.7-18.62,14.26-21.72,26.41-2,7.82-1.42,15.16,6.24,19.84C277.27,215.46,283.1,218.35,289.35,217.41Zm-16.91,34.23c-6.34-3.11-5.64-2.72-9.28-5.49-10.87-8.28-15.52-16.44-21.3-28.55m30.58,34c-6.34-3.11-5.64-2.72-9.28-5.49"/><path class="cls-2" d="M271.48,251.82c-3.13,0-4.32-1.34-5.79-3a18.43,18.43,0,0,0-2.59-2.53h0c-11.22-8.55-15.92-17.25-21.34-28.61-5.57-11.67-.75-31.8-.7-32l0-.1h.1c13.13-1.29,23.28-15.06,23.25-26,0-.59,0-1.17,0-1.74,0-6.54,0-11.27-3.54-17.54a3.32,3.32,0,0,1-.32-2.95,4.39,4.39,0,0,1,3.1-2.34,72.61,72.61,0,0,1,18.7-2.64A52.56,52.56,0,0,1,307.7,136a55.85,55.85,0,0,1,20,14.19,61.56,61.56,0,0,1,15.13,52.72c-2.27,15.16-10.58,29.25-26.17,44.32-1.34,1.29-3.32,2-6.05,2.17-3.2.2-6.82.4-10.6.62-9.23.53-19.69,1.13-27.56,1.73C272.11,251.81,271.78,251.82,271.48,251.82ZM265.31,248l.6.66c1.53,1.75,2.67,3,6,2.91l-.45-.22C267.62,249.43,266.75,249,265.31,248ZM264,246.6c2.67,2,2.67,2,7.59,4.45l.9.44c7.87-.6,18.31-1.2,27.52-1.73l10.6-.61c2.66-.16,4.58-.85,5.87-2.1C332,232,340.29,218,342.55,202.89a61.27,61.27,0,0,0-15.06-52.47,55.39,55.39,0,0,0-19.9-14.12,52.26,52.26,0,0,0-25.22-3.71,72.53,72.53,0,0,0-18.64,2.62,4.17,4.17,0,0,0-2.92,2.17,3.07,3.07,0,0,0,.31,2.71c3.59,6.34,3.58,11.34,3.57,17.68v1.74c0,11.07-10.18,24.94-23.41,26.31-.36,1.54-4.62,20.56.71,31.72,5.4,11.32,10.08,20,21.26,28.5l0,0Zm28.46-28.86a27.2,27.2,0,0,1-3.09-.18c-6.3.93-12.21-2-17.66-5.33-6.64-4-8.7-10.59-6.3-20,2.78-10.92,7.55-22.61,21.83-26.52a9.56,9.56,0,0,1,5.84-.12c8.61,3.06,20.07,18.69,20.44,27.86.3,7.48-2.42,14.62-7.27,19.11A19.8,19.8,0,0,1,292.44,217.74Zm-3.09-.47h0c6.58.78,12.35-.92,16.66-4.91,4.8-4.43,7.48-11.49,7.19-18.89-.37-9.09-11.72-24.56-20.25-27.6a9.28,9.28,0,0,0-5.68.13c-14.13,3.87-18.86,15.47-21.62,26.31-2.4,9.39-.44,15.64,6.17,19.67,5.41,3.3,11.27,6.23,17.49,5.29Z"/><path class="cls-2" d="M271.52,253.16c-3.78,0-5.33-1.75-6.84-3.46a16.28,16.28,0,0,0-2.4-2.35h0c-11.47-8.74-16.25-17.57-21.74-29.1-5.78-12.09-1-32.06-.8-32.9l3.19-.24c0,.2-5,20.72.29,31.86,5.48,11.5,9.9,19.66,20.86,28h0l0,0,.7.54c2.57,2,2.57,2,7.36,4.31l.58.29c7.85-.6,18.13-1.19,27.22-1.71l10.56-.61c2.32-.15,4-.71,5-1.72,15.32-14.81,23.49-28.6,25.7-43.4a60,60,0,0,0-14.72-51.37c-11.68-12.82-27.31-19-44-17.39a71.72,71.72,0,0,0-18.39,2.57c-3.23.84-3.2,2.06-3.44,2.65s.11.61.33,1l-1.29.73c-.78-1.37-1.58-3.16-1.05-4.44.41-1,2.1-2.08,4.63-2.8a73.87,73.87,0,0,1,19-2.69c17.28-1.66,34.23,5,46.38,18.36a62.91,62.91,0,0,1,15.45,53.87c-2.3,15.42-10.75,29.75-26.56,45-1.58,1.53-3.84,2.36-6.9,2.55s-6.79.4-10.57.62c-9.23.53-19.7,1.13-27.56,1.73C272.19,253.15,271.84,253.16,271.52,253.16Zm20.93-34.07a27,27,0,0,1-3.08-.18c-6.64.92-12.76-2.11-18.38-5.54-7.21-4.39-9.47-11.41-6.9-21.47,2.88-11.29,7.84-23.39,22.77-27.48a10.82,10.82,0,0,1,6.66-.09c9.17,3.27,20.93,19.3,21.32,29.08.32,7.86-2.56,15.4-7.7,20.15A21.16,21.16,0,0,1,292.45,219.09Zm-3.12-3.18.19,0c6.19.74,11.58-.84,15.6-4.56,4.51-4.16,7-10.84,6.75-17.84-.34-8.51-11.37-23.56-19.35-26.39a7.72,7.72,0,0,0-4.87.15c-13.47,3.69-18,14.88-20.68,25.35-2.23,8.74-.46,14.52,5.57,18.2,5.2,3.16,10.8,6,16.59,5.1Z"/><path class="cls-2" d="M333.3,158.27c-1.36,0-2.69-.78-4-2.32-.59-.71-1.17-1.43-1.76-2.15-3.28-4-6.37-7.82-10.55-10.6a4.71,4.71,0,0,1-1.94-6.44,85.55,85.55,0,0,1,29.55-36l.14-.09c11.5-6.61,19.9-7.46,31.4-8A47.24,47.24,0,0,1,396.1,96a27.76,27.76,0,0,1,8.29,5.19c9,8,13.85,18.88,15.39,34.33.3,3,.21,5.41-1.19,7.09s-3.76,2.22-7.07,2.5h-7.94c-1.29,0-2.5,0-4.07,0-4.16-.09-5.93-1.77-6-5.64-.54-7.29-4.53-14-10.4-17.46a17.83,17.83,0,0,0-17-.58c-11.74,5.24-19.16,13.06-25.64,27a55.25,55.25,0,0,1-2.76,6l-.32.63c-1,1.91-2.22,3-3.7,3.13A2.69,2.69,0,0,1,333.3,158.27Zm13.32-54.51a82.07,82.07,0,0,0-28.26,34.44c-.5,1.13-.35,1.36.64,2,4.63,3.09,8,7.27,11.34,11.32l1.75,2.13c.67.81,1.12,1,1.22,1a2.86,2.86,0,0,0,.9-1.2l.32-.63a56.83,56.83,0,0,0,2.65-5.73c6.93-15,14.87-23.29,27.46-28.91a21.31,21.31,0,0,1,20.26.75c6.86,4,11.52,11.84,12.16,20.37.05,1.87.05,2.19,2.41,2.24,1.55-.06,2.87-.05,4.14,0h7.68c2.67-.22,4-.58,4.55-1.21s.62-2,.37-4.44c-1.44-14.51-5.95-24.68-14.2-32a24.25,24.25,0,0,0-7.24-4.53,43.57,43.57,0,0,0-18.43-3.08C365.06,96.8,357.42,97.58,346.62,103.76Z"/><path class="cls-2" d="M348.34,241.93c-2.43,0-5-.18-7.92-.38h-.07c-3.85-.43-13-1.54-14.89-2.7L324,238l.87-1.52c1.69-2.94,6.42-10.65,6.62-11l.9-1.55c3-5.17,6.15-10.51,7.72-16.34a5.86,5.86,0,0,1,2.69-3.95c1.72-.85,3.63-.3,5.44.43,9.1,3.66,16.24,3.33,22.47-1,6-4.18,8.33-10.75,10.82-17.7l.5-1.4a1.15,1.15,0,0,0-.14-1.16c-.56-.8-2.29-1.66-5.44-1.66h-.18a64.42,64.42,0,0,1-6.7-.42l-1.89-.22-2.17-.25.66-2.08c.83-2.57,1.15-3.78,1.5-5.06.17-.63.35-1.28.59-2.1l.15-.54c2.6-9,3.95-11.52,17.49-9.49,12.47,1.43,12.47,1.43,21.74,2.85.34.06.72.08,1.11.11,1.54.11,3.45.25,4.59,1.61a3.55,3.55,0,0,1,.74,2.74l0,.17A76.92,76.92,0,0,1,406.16,190c-.86,1.69-1.74,3.44-2.62,5.33-6.85,14.77-17.64,27.33-33,38.39C361.25,240.44,355.4,241.93,348.34,241.93ZM340.7,238c11.19.76,16.31,1.1,27.77-7.17,14.83-10.7,25.24-22.8,31.83-37,.9-1.94,1.79-3.72,2.66-5.43a73.77,73.77,0,0,0,7.54-20.6v0a7.82,7.82,0,0,0-2-.31c-.49,0-1-.07-1.39-.14-9.2-1.41-9.2-1.41-21.67-2.84-11.1-1.66-11.33-.85-13.58,6.94l-.16.54c-.23.79-.4,1.42-.56,2-.25.91-.49,1.8-.9,3.14,1.51.18,1.72.19,6.18.38,4,0,7,1.13,8.41,3.18a4.72,4.72,0,0,1,.58,4.44l-.5,1.39c-2.57,7.17-5.23,14.59-12.14,19.42-7.21,5.05-15.66,5.51-25.86,1.41-1.73-.69-2.31-.64-2.5-.54s-.54.6-.83,1.68c-1.7,6.28-5,11.84-8.09,17.21l-.92,1.57c-.06.1-3.36,5.48-5.45,9C331.67,236.83,336.49,237.52,340.7,238Z"/><path class="cls-2" d="M443.56,249.34c-5.05,0-10.56-.56-19.59-2.71-17.94-4.28-32.81-8-51.5-13.11l-2.78-.76,1.92-2.15a99,99,0,0,1,8.61-8.3c1.6-1.42,3.11-2.76,4.59-4.18a81.77,81.77,0,0,0,23.57-41.87c.27-1.23.65-2.42,1-3.57s.7-2.22.92-3.27l8.14-38.69,3.18-15.87a106.63,106.63,0,0,0,1.92-11.72c.07-.47.1-.8.13-1.1.13-1.49.31-3.53,3.51-4.43l2.52-.72A131.65,131.65,0,0,1,445.93,93c1-.15,4-.62,5.61,1.26s.8,4.65.53,5.57c-1.84,6.24-3.58,12.62-5.27,18.79-5.1,18.61-10.36,37.86-18.76,55.94a176,176,0,0,0-7,18.73c-1.37,4.13-2.79,8.4-4.39,12.53a5.14,5.14,0,0,0,.19,4.06,7.6,7.6,0,0,0,4.38,3.8c13.73,4.7,28.23,7.44,42.26,10.1l1,.19c1,.19,4,.76,4.75,4,1.52,6.78,4,11.28,8.67,15.54l.87.8-.38,1.13c-.43,1.22-1,1.26-4.49,1.5a63.09,63.09,0,0,0-7.6.81l.14,1-2.1,0c-5.71-.09-9.86.14-13.52.34C448.29,249.21,446,249.34,443.56,249.34Zm-67.28-18.48c17.32,4.72,31.54,8.23,48.52,12.29,12.85,3.07,18,2.78,25.83,2.35,3.53-.2,7.51-.41,12.87-.36,1.22-.92,3.79-1.28,9.32-1.68a31.51,31.51,0,0,1-7.07-14.67c-.11-.46-.22-1-1.93-1.31l-1-.19c-14.15-2.68-28.78-5.45-42.75-10.23a11,11,0,0,1-6.46-5.68,8.68,8.68,0,0,1-.29-6.86c1.57-4.05,3-8.28,4.34-12.37A180.46,180.46,0,0,1,424.79,173c8.27-17.81,13.5-36.9,18.56-55.37,1.69-6.19,3.44-12.59,5.28-18.86.52-1.75.22-2.2.21-2.2s-.43-.38-2.36-.09a130.56,130.56,0,0,0-15.78,3.81l-2.53.72c-.82.23-.82.23-.92,1.31a11.91,11.91,0,0,1-.15,1.24,102.81,102.81,0,0,1-2,12L422,131.45l-8.14,38.7c-.26,1.24-.64,2.45-1,3.62s-.7,2.19-.94,3.27a85.22,85.22,0,0,1-24.58,43.67c-1.53,1.47-3.14,2.9-4.7,4.28C380.5,226.84,378.36,228.74,376.28,230.86Z"/><path class="cls-2" d="M313.6,250.31l-.44-2.83c.45-.07,45.53-7.15,53.77-15.12l2,2.06C360,243,315.49,250,313.6,250.31Z"/><ellipse class="cls-3" cx="496.3" cy="112.35" rx="10.72" ry="18" transform="translate(308.22 585.17) rotate(-81.06)"/><path class="cls-2" d="M556.56,249c-11.57,0-20.92-8.75-25.95-17.34a2,2,0,0,0-1.42-1.15,2.88,2.88,0,0,0-2.3,1c-4.75,4.38-9.17,8.25-13.49,11.84-5.83,4.82-12.29,6.38-19.21,4.63a22.44,22.44,0,0,0-5.14-.48,22.82,22.82,0,0,1-7.3-1c-10.69-3.74-17.06-12.72-17.06-24V208.6c0-11.47.3-19.57.59-27.4.13-3.66.27-7.33.38-11.38a77.58,77.58,0,0,1,4-21.28c1.33-4.26,3.29-5,8.5-7.16l.72-.27c4.53-1,8.09-1.93,11.23-2.75,3.78-1,7-1.82,11-2.6l2.66-.53-8.28,38.43c-1.25,6.05-2,12.3-2.78,18.34-.23,1.81-.45,3.62-.69,5.42-1.83,9.55.57,17.64,7.15,24.15,4.33,4.28,9.89.47,12.08-1.37a38.28,38.28,0,0,0,11.17-14.8,34.13,34.13,0,0,1,2.89-5.27,40.73,40.73,0,0,0,3.11-5.61l1.78-4.08,1.54,4.18a49.47,49.47,0,0,0,11,17.91,24.8,24.8,0,0,0,28.65,5C579,214,586.67,205.61,585.33,193c-.09-1.76-1-2.8-2.17-4.24l-.13-.16c-5.11-6.09-11.82-9.83-18.93-13.8l-.38-.21c-8.42-4.69-16.53-9.45-23.16-16-8.12-8-9-22.28-2.27-35.42,7.15-13.91,18.54-20.58,36.92-21.63,10.49-.59,16.95,3.35,23.44,9.46.34.34,7.55,7.57,7.57,16.37A16.14,16.14,0,0,1,601.08,139c-5,4.4-8,4.83-11.83,1.79-1.68-1.33-2.78-3.42-3.84-5.43-.49-.94-1-1.82-1.47-2.62a15.89,15.89,0,0,0-12.24-7.55,16.2,16.2,0,0,0-13.41,6c-2,2.29-2,4.87-.28,8.13,6.34,11.38,16.88,17.4,27.06,23.23C600,171.11,615.47,180,614,205.7c-.61,9.69-5.62,17.31-10.28,23.69-.37.52-.77,1-1.16,1.56a37.33,37.33,0,0,0-3.05,4.47c-5.21,9.57-14.14,13.92-26.51,12.92a60.85,60.85,0,0,0-9.81.24c-1.46.11-2.93.23-4.4.3C558.05,249,557.3,249,556.56,249ZM528.93,226.9a5.55,5.55,0,0,1,.82.06,5.62,5.62,0,0,1,4,2.91c4.78,8.15,13.83,16.51,24.83,15.44,1.53-.08,3-.19,4.38-.3a64.75,64.75,0,0,1,10.37-.24c11,.9,18.55-2.73,23.08-11.06a41.23,41.23,0,0,1,3.34-4.91c.39-.51.77-1,1.13-1.52,5.41-7.41,9.11-13.95,9.59-21.79,1.33-23.53-11.86-31.08-27.14-39.83-10.62-6.07-21.59-12.35-28.42-24.61-3.12-5.76-1.35-9.8.69-12.18a19.73,19.73,0,0,1,16.37-7.23,19.43,19.43,0,0,1,15,9.19c.6.92,1.12,1.92,1.63,2.89a14,14,0,0,0,2.88,4.27c1.89,1.49,2.84,2.23,7.17-1.58a12.59,12.59,0,0,0,4-9.08c0-7.31-6.41-13.76-6.47-13.82-5.95-5.61-11.52-9-20.76-8.46-17,1-27.44,7-33.94,19.69-6,11.74-5.39,24.3,1.61,31.24,6.31,6.25,14.19,10.87,22.38,15.44l.38.21c7.08,3.94,14.4,8,19.93,14.62l.13.16c1.34,1.59,2.86,3.4,3,6.27A27.24,27.24,0,0,1,573,220.76,28.35,28.35,0,0,1,540.23,215a51.59,51.59,0,0,1-10.34-15.48c-.52.89-1,1.72-1.53,2.5a30.11,30.11,0,0,0-2.6,4.71,41.78,41.78,0,0,1-12.19,16.19c-6,5.07-12.5,5.51-16.9,1.17-7.47-7.39-10.22-16.57-8.16-27.26.22-1.69.44-3.49.67-5.29.76-6.12,1.54-12.44,2.83-18.64h0l7.13-33.08c-2.77.61-5.31,1.27-8.15,2-3.14.81-6.68,1.73-11.2,2.74l-.3.12c-5.13,2.08-5.63,2.34-6.43,4.92a74,74,0,0,0-3.83,20.31c-.1,4.05-.24,7.74-.37,11.41-.3,8.16-.59,15.87-.59,27.27v13.85c0,9.87,5.34,17.4,14.66,20.66a19.38,19.38,0,0,0,6.19.77,25.94,25.94,0,0,1,5.95.59c5.83,1.48,11.08.2,16-3.92,4.28-3.54,8.65-7.37,13.36-11.72A6.66,6.66,0,0,1,528.93,226.9Z"/><path class="cls-2" d="M499.32,124.75a32.22,32.22,0,0,1-4.91-.39c-10.76-1.7-18.37-8.3-17.31-15,.53-3.35,3.11-6.11,7.27-7.78a28.8,28.8,0,0,1,26.6,4.18c3.44,2.87,5,6.29,4.53,9.64C514.6,121.05,507.87,124.75,499.32,124.75Zm-6-21.93a21.34,21.34,0,0,0-7.89,1.39c-3.19,1.28-5.14,3.25-5.51,5.57-.78,5,6.05,10.35,14.93,11.75s17-1.63,17.81-6.61c.36-2.31-.89-4.79-3.53-7a23.82,23.82,0,0,0-11.4-4.77A27.77,27.77,0,0,0,493.33,102.82Z"/><path class="cls-2" d="M598.49,245.93c-1.17,0-2.28,0-3.44-.06s-2.59-.06-4.14-.06h-3.85l2.48-2.95c1-1.2,2-2.36,2.87-3.47,2-2.4,3.82-4.67,5.83-6.78a44.84,44.84,0,0,0,6.26-9.19c1-1.66,1.92-3.38,3-5,1.94-3,4.3-4,8.15-3.6,1.75.19,3.51.48,5.2.75,5,.81,9.75,1.57,14.62.17,16.32-4.71,21.81-12.94,18.34-27.53-2.23-8.47-14.43-12.67-25.2-16.38A93,93,0,0,1,616.38,167c-9-4.19-12.71-12.05-15.36-19.93-.61-1.44-5-13.76,14.67-33.35l0,0a35,35,0,0,1,32-8.22c11.27,2.83,20.06,11.18,24.12,22.91,1.57,4.11,2.38,6.19,1.39,8.07s-3.22,2.42-7.67,3.49c-9.73,2.33-10.62,2-16.05-6.56a15.75,15.75,0,0,0-12.7-7.4h-.08c-4.37,0-8.18,2.29-11,6.63a10.3,10.3,0,0,0,.39,11.41c5.19,7.27,12.51,11.8,19.65,15.61l4.39,2.36c3.59,1.94,7.3,3.93,11,5.81,9.06,4.6,15.29,11.59,18,20.22,3,9.44,1.65,20.37-3.81,30.76-6.16,11.72-16.33,14.79-26.16,17.77l-3.28,1c-13.26,4.17-24.09,5.71-40.49,8l-.34,0C602.37,245.86,600.34,245.93,598.49,245.93Zm-3.82-3.65h.47a77.09,77.09,0,0,0,9.55-.22l.24,0c16.22-2.3,26.94-3.82,39.92-7.9,1.1-.35,2.21-.69,3.32-1,9.54-2.89,18.56-5.63,24-16,5-9.54,6.28-19.49,3.57-28-2.45-7.69-8.07-14-16.25-18.11-3.72-1.89-7.45-3.9-11-5.85l-4.39-2.35c-7.52-4-15.25-8.82-20.88-16.7a13.94,13.94,0,0,1-.46-15.44c3.49-5.33,8.46-8.25,14-8.25h.11a19.42,19.42,0,0,1,15.69,9.06c2.35,3.69,3.54,5.49,4.75,6s3.42,0,7.38-1c2.53-.61,5.07-1.22,5.4-1.7s-.71-2.89-1.58-5.18C664.82,119,657,111.45,646.87,108.92a31.44,31.44,0,0,0-28.68,7.35c-18.45,18.41-13.92,29.28-13.88,29.39l.08.18c2.39,7.15,5.7,14.27,13.58,17.95a90,90,0,0,0,11.81,4.63c11.61,4,24.77,8.53,27.5,18.89,3.92,16.5-2.69,26.61-20.82,31.84-5.63,1.63-11,.76-16.18-.08-1.65-.26-3.36-.54-5-.72-2.51-.27-3.58.18-4.77,2-1,1.56-2,3.23-2.88,4.84a47.91,47.91,0,0,1-6.78,9.89c-1.92,2-3.73,4.23-5.65,6.57Z"/><path class="cls-4" d="M121.41,319.63c7-10.43,15-20.05,22.27-30.2,3.26-4.54,2.88-13.64-.88-19.17a42.14,42.14,0,0,0-9.09-10.19c-15.49-11.8-22.36-38.36-27-56.67A69.89,69.89,0,0,1,112.76,154c7.58-14.79,16.73-28.5,26.45-41.83,16.11-23.33,44.09-37.27,53.26-65.41A4.54,4.54,0,0,1,195.41,44c13-5.41,26.85-7.85,40.29-11.72,3.67-1.05,3.89,1.78,3.55,4-2.53,17.06-6,33.14-19.71,46a326.65,326.65,0,0,0-47.29,55.51c-8.36,12.39-17.42,24.7-20.41,40-4.37,22.34.27,40.37,19.95,53.87,14.57,10,31.64,15.82,49.15,18.1,14.27,1.87,25.77,1.68,39,2.46,7.57.44,15-2.26,22.5-3.32,5.83-.82,11.33-1.16,16.38,3.16,2.94,2.52,7.09,2.8,10.91,3.33,16.28,2.25,32.46,5.19,49,5.59,9.27.23,18.56,1.19,27.79,1.42,23.11.59,46.21,2.55,69.37,1.11,13.36-.82,26.32-3.77,39.45-5.84A107.82,107.82,0,0,0,529,246.91c3.06-1.61,7.23-1.7,10.83-1.48,14.95.88,29.66-2.09,44.54-2.57,9-.29,15.43,4.17,21.62,8.91,16.5,12.63,32.57,25.82,50.16,36.92,10.4,6.57,16.13,16.71,20.52,27.86,7.26,18.11,1.18,29.88-19.28,24.93-7.14-2-14.75-3.43-21-7.6-10-6.67-21.45-8.5-32.64-8.4-25.76.24-51.56-1.56-77.29.54-32.81,2.48-27.86,17.46-67.88,9.84-12.41-2.11-24.9-3.81-37.25-6.24-9.4-1.86-18.62-4.61-28.12-6-14-2.09-28-4.34-42.1-6.2-13.5-1.78-23.31,3.76-32.14,13-2.78,2.89-5.64,5.89-9,8-8.15,5.22-16.32,3.29-23-4.94a24,24,0,0,1-2.62-4c-3.94-7.66-8.65-11.4-18.38-8.87-9.35,2.42-19.57,1.11-29.29,2.38-26.44,3.47-53.27,2.24-79.6,6.8-11.08,1.92-22.17,3.53-33.45,3.34a16.71,16.71,0,0,1-9.26-2.61S119.47,322.53,121.41,319.63Zm538.08-1.25c-.39-3.25-.39-3.27-2.73-4.27A195.77,195.77,0,0,0,617,301.5c-16.83-3.28-33.85-5.85-51.15-5.27-26.5.9-52.92,2.84-78.92,8.1-10.74,2.16-21.85,3.64-31.73,9.06-2,1.08-3.39.27-4.5-.79-33.14-23.74-72.1-36.42-111.83-42.83-5.32-.83-10.86-.2-16.29-.18-1.8,0-3.52.21-4.05,2.51-.56,2.46,1.65,2.5,2.81,3.14,25.12,11.85,53,15.24,78.81,25.24,19.88,7.69,39.91,14.95,59.13,24.25,2.64,1.27,5.13,2.83,8.18,1.93.71-2.88-2.63-3.25-2.83-5.8,2.66-1.07,5.3-2.5,8.12-3.23A486.68,486.68,0,0,1,554,303.9c16.61-1.43,33.2-.72,49.85,1.06a238,238,0,0,1,38.06,7.34C647.76,313.92,652.85,317.71,659.49,318.38ZM239.43,273.83c-2.47-1.44-2.89-2.15-5.13-2.35-14.87-.14-29.81-1.09-44,5.11-3.49,1.52-6.34,3-6.65,7.17-.33,4.38,2.36,7,5.58,9.26,9.65,6.85,20.64,7.23,31.77,6.93,3.74-.1,5.72-2.11,5.76-6.06,0-2.91,1.48-5.37,2.65-7.95C231.55,281.2,234.91,277.51,239.43,273.83Zm330.29-23.21c-8.17,1-15.2,3.13-22.3,4.88-1.46.36-3.36.8-3.36,2.77,0,3.43,4,4.14,6.55,5.09a217.36,217.36,0,0,1,38.73,15.52c2.27,1.17,4.38,2.1,6-.07s.36-4.54-1.19-6.24c-4.84-5.31-9.54-10.83-14.94-15.49C576.24,254.5,573.21,251.25,569.72,250.62ZM272.9,302.74c-.33,4.54,1,6.61,4.25,7.53,2.21.63,4.26,1,5.32-1.62,2.79-6.82,7.37-12.2,12.78-17,2.05-1.82,1.53-3.87-.27-5.49-2.52-2.25-5.52-3.31-8.73-1.73C278.21,288.38,272.54,294.11,272.9,302.74Zm48,8.9c5.58-.29,18-11.31,19.28-17.07.71-3.22-1.31-5.07-4.69-3.75a35.91,35.91,0,0,0-17.93,15.33C315.8,309.12,317.58,311.82,320.92,311.64Z"/><path class="cls-2" d="M665.89,344.4a37.17,37.17,0,0,1-8.91-1.18c-1.44-.4-2.83-.77-4.23-1.14-5.93-1.57-12.06-3.19-17.36-6.71-8.37-5.57-18.71-8.23-31.62-8.1-8.86.08-17.86-.08-26.56-.23-16.61-.3-33.78-.61-50.6.76a71.88,71.88,0,0,0-26.3,6.73c-9.54,4.13-17.78,7.71-42.06,3.08-4.38-.74-8.8-1.44-13.22-2.13-7.89-1.25-16.06-2.54-24-4.11-3.81-.75-7.64-1.66-11.34-2.54-5.45-1.29-11.09-2.63-16.7-3.46l-12.38-1.87c-9.72-1.49-19.77-3-29.68-4.32-11.47-1.51-20.92,2.31-30.62,12.41l-.16.16a52.24,52.24,0,0,1-9.13,8.12c-8.81,5.63-18,3.69-25.35-5.32a25.75,25.75,0,0,1-2.82-4.29c-3.5-6.82-7.3-10.31-16.35-8-5.72,1.48-11.76,1.62-17.61,1.74a111.92,111.92,0,0,0-11.89.69c-11.91,1.56-24.06,2.18-35.8,2.78-14.4.74-29.29,1.5-43.73,4-12.45,2.16-23,3.56-33.78,3.37a18.43,18.43,0,0,1-10.21-2.9l-1.49-1,1-1.5c.2-.32,5.09-8,7-10.87h0c4.21-6.29,8.83-12.36,13.31-18.24,3-3.91,6.06-8,9-12s2.4-12.26-.9-17.11a40.45,40.45,0,0,0-8.69-9.77c-16.16-12.32-23.08-39.6-27.66-57.66a72,72,0,0,1,6.2-50.64c6.69-13,14.89-26,26.59-42.06,6.4-9.26,14.73-17.14,22.78-24.77,12.75-12.06,24.79-23.46,30.23-40.14a6.31,6.31,0,0,1,3.95-3.85c8.91-3.71,18.3-6.06,27.39-8.34,4.31-1.08,8.77-2.2,13.1-3.45,1.91-.54,3.43-.34,4.53.62s1.66,2.9,1.28,5.41c-2.54,17.15-6,33.65-20.25,47a324.44,324.44,0,0,0-47,55.2L171.58,142c-7.53,11.08-15.32,22.53-18,36.18-4.57,23.38,1.54,39.92,19.21,52.05,13.53,9.28,30.25,15.44,48.37,17.8,9.67,1.26,17.92,1.57,26.66,1.9,3.95.14,8,.29,12.25.54,4.74.28,9.4-.73,14.34-1.8,2.55-.56,5.19-1.13,7.81-1.5,5.91-.83,12.16-1.24,17.79,3.57,2.22,1.9,5.38,2.31,8.72,2.75l1.27.16c3.46.48,6.91,1,10.36,1.5,12.55,1.85,25.52,3.77,38.41,4.08,4.7.12,9.46.42,14.07.72s9.17.59,13.73.7c6.67.17,13.45.46,20,.74,16.13.69,32.81,1.4,49.21.38,9.35-.58,18.71-2.25,27.76-3.85,3.77-.68,7.67-1.37,11.53-2a105.44,105.44,0,0,0,33.1-10.63c3.65-1.91,8.47-1.88,11.76-1.68,8.95.52,18-.37,26.8-1.23,5.75-.56,11.68-1.14,17.58-1.33,9.39-.31,16.15,4.21,22.77,9.27,3.58,2.74,7.13,5.5,10.69,8.27,12.6,9.79,25.63,19.91,39.33,28.56,11.72,7.39,17.5,19.23,21.24,28.72,4.16,10.37,4.07,18.83-.24,23.82C676.08,342.06,672.41,344.4,665.89,344.4ZM604.6,323.69c13.24,0,24,2.85,32.78,8.7,4.8,3.2,10.64,4.74,16.29,6.23,1.41.37,2.83.75,4.22,1.14,8.33,2,14.41,1.2,17.51-2.39,3.39-3.92,3.26-11.07-.38-20.15-3.76-9.55-9-20.21-19.81-27-13.86-8.75-27-18.93-39.62-28.77-3.55-2.75-7.1-5.51-10.68-8.24-6.31-4.84-12.2-8.82-20.48-8.55-5.77.19-11.65.77-17.34,1.33-8.91.87-18.13,1.77-27.36,1.23-2.87-.17-7-.22-9.89,1.28a109,109,0,0,1-34.21,11c-3.82.6-7.7,1.29-11.45,2-9.15,1.63-18.61,3.31-28.17,3.9-16.58,1-33.36.32-49.58-.38-6.54-.27-13.3-.56-19.94-.73-4.63-.12-9.33-.42-13.87-.71s-9.3-.6-13.92-.71c-13.12-.32-26.2-2.25-38.85-4.12-3.44-.5-6.88-1-10.33-1.49l-1.24-.17c-3.54-.46-7.56-1-10.59-3.57-4.5-3.85-9.44-3.52-15-2.74-2.49.35-5.06.9-7.55,1.44-5,1.08-10.09,2.19-15.31,1.89-4.18-.25-8.24-.4-12.17-.55-8.83-.33-17.16-.64-27-1.92-18.67-2.44-35.93-8.8-49.92-18.4-19-13-25.58-30.74-20.7-55.69,2.81-14.36,10.81-26.13,18.54-37.5l2.15-3.17A328.69,328.69,0,0,1,218.32,81C231.73,68.44,235,52.59,237.48,36.1c.26-1.74-.09-2.19-.1-2.19a2.17,2.17,0,0,0-1.19.12c-4.38,1.27-8.87,2.39-13.21,3.48-9,2.25-18.22,4.57-26.89,8.17-1.33.56-1.71,1-1.92,1.67C188.46,64.88,175.52,77.13,163,89c-7.92,7.5-16.11,15.25-22.32,24.24C129.06,129.14,121,142,114.35,154.84a68.42,68.42,0,0,0-5.9,48.15c4.45,17.54,11.18,44.1,26.35,55.66a43.66,43.66,0,0,1,9.48,10.61c4.17,6.13,4.57,16,.85,21.21-2.95,4.1-6,8.17-9,12.1-4.44,5.83-9,11.86-13.18,18.06-1.38,2.06-4.39,6.75-6,9.22a15.54,15.54,0,0,0,6.77,1.45c10.55.2,20.86-1.19,33.11-3.31,14.65-2.54,29.65-3.31,44.15-4.05,11.68-.6,23.76-1.22,35.53-2.76a112.77,112.77,0,0,1,12.27-.72c5.9-.12,11.48-.24,16.8-1.62,11.93-3.1,16.87,2.87,20.43,9.78a21.12,21.12,0,0,0,2.42,3.67c4.32,5.34,11.4,10.46,20.63,4.57a49.52,49.52,0,0,0,8.48-7.59l.16-.16c10.57-11,21-15.16,33.67-13.48,9.95,1.31,20,2.84,29.75,4.33l12.37,1.87c5.76.85,11.47,2.21,17,3.52,3.67.87,7.46,1.77,11.2,2.51,7.93,1.56,16.06,2.84,23.92,4.08,4.43.7,8.87,1.4,13.29,2.15,23.24,4.42,30.64,1.22,40-2.84a74.84,74.84,0,0,1,27.45-7c17-1.39,34.24-1.08,50.94-.78,8.68.15,17.66.32,26.46.23Zm-139,5a14,14,0,0,1-6.25-1.94l-.89-.44c-15.8-7.65-32.47-14-48.58-20.19q-5.22-2-10.41-4c-11.21-4.34-23-7.49-34.49-10.53-14.83-3.95-30.17-8-44.44-14.76a4.22,4.22,0,0,0-.74-.31c-1.05-.38-3.84-1.39-3.05-4.84.88-3.9,4.44-3.91,5.78-3.91,1.61,0,3.22-.07,4.83-.13a61.67,61.67,0,0,1,11.75.33c45.49,7.35,82.32,21.46,112.59,43.15l.19.16c1,1,1.61.95,2.41.51,8.6-4.72,18.09-6.53,27.26-8.28l5-1c28.74-5.8,57.43-7.39,79.22-8.13,18.24-.61,36.3,2.34,51.55,5.3a198.23,198.23,0,0,1,40.15,12.72c3.06,1.32,3.36,2,3.8,5.67l.27,2.22-2.22-.19c-4.28-.43-7.88-2-11.36-3.59a46.18,46.18,0,0,0-6.54-2.55,236.52,236.52,0,0,0-37.78-7.28c-18.8-2-34.53-2.35-49.5-1.06a487.75,487.75,0,0,0-81,13.68,34.67,34.67,0,0,0-5.32,2.05l-.83.36.35.35a4.88,4.88,0,0,1,1.8,5l-.25,1-1,.29A8.16,8.16,0,0,1,465.61,328.72ZM332.52,271.13c-1.64,0-3.31.06-5,.12s-3.31.12-4.95.13c-2,0-2.13.34-2.3,1.12a.89.89,0,0,0,0,.39l.82.3a6.79,6.79,0,0,1,1.14.48c13.88,6.54,29.06,10.58,43.74,14.49,11.54,3.07,23.47,6.24,34.86,10.65l10.4,4c16.18,6.19,32.92,12.6,48.86,20.31l.93.45a12,12,0,0,0,4.35,1.56l-.45-.46a5.6,5.6,0,0,1-2-3.67l-.1-1.3,1.21-.5c.82-.33,1.64-.69,2.46-1.06a37.6,37.6,0,0,1,5.88-2.24,491.73,491.73,0,0,1,81.55-13.79c15.21-1.3,31.16-1,50.19,1.08a239,239,0,0,1,38.35,7.38,51.76,51.76,0,0,1,7,2.73,43.85,43.85,0,0,0,7.48,2.82l-.84-.37a195.27,195.27,0,0,0-39.42-12.5c-15-2.93-32.85-5.83-50.75-5.23-21.65.73-50.15,2.31-78.63,8.06-1.66.33-3.33.66-5,1-8.91,1.7-18.11,3.46-26.22,7.91a5.22,5.22,0,0,1-6.5-1c-29.79-21.32-66.09-35.21-111-42.46A38.75,38.75,0,0,0,332.52,271.13Zm-11.9,42.31a5.15,5.15,0,0,1-4.57-8.21,37.51,37.51,0,0,1,18.81-16.07c3.05-1.2,4.89-.21,5.71.48A5.27,5.27,0,0,1,342,295c-1.43,6.57-14.54,18.14-20.94,18.48h-.39Zm16.92-21.26a4,4,0,0,0-1.38.31,34,34,0,0,0-17,14.58,2,2,0,0,0-.28,2,2.14,2.14,0,0,0,2,.75h0c4.84-.26,16.55-10.65,17.64-15.67a2,2,0,0,0-.21-1.82A1.12,1.12,0,0,0,337.54,292.18ZM279.61,312.5a10.78,10.78,0,0,1-2.95-.51c-5.41-1.54-5.78-6-5.56-9.28-.3-8.37,4.53-15.06,14.37-19.89,3.51-1.73,7.32-1,10.7,2a5.81,5.81,0,0,1,2.19,4.29,5.13,5.13,0,0,1-1.92,3.87c-6,5.36-9.95,10.55-12.31,16.34A4.58,4.58,0,0,1,279.61,312.5Zm9.73-27a5.26,5.26,0,0,0-2.3.56c-8.6,4.23-12.65,9.67-12.36,16.63v.21c-.29,4,.82,5.07,3,5.68,2.53.72,2.79.37,3.17-.57,2.58-6.32,6.79-11.93,13.25-17.67a1.73,1.73,0,0,0,.72-1.19,2.51,2.51,0,0,0-1-1.62A6.71,6.71,0,0,0,289.34,285.47Zm-73,16.34c-9.58,0-19.39-1.11-28.15-7.33-3.36-2.38-6.74-5.53-6.33-10.85.41-5.5,4.63-7.34,7.72-8.68,13.1-5.72,26.87-5.52,40.18-5.32,1.52,0,3,.05,4.57.06h.14a8.3,8.3,0,0,1,4.38,1.65c.41.27.89.58,1.5.94l2.23,1.3-2,1.63c-4.75,3.87-7.69,7.4-9.54,11.46-.2.45-.41.89-.62,1.33-1,2-1.85,3.88-1.87,5.89-.05,4.85-2.78,7.71-7.51,7.84C219.47,301.78,217.9,301.81,216.33,301.81Zm5.81-28.67c-10.76,0-21.08.7-31.14,5.09-3.76,1.64-5.37,2.79-5.58,5.67-.26,3.34,1.66,5.41,4.83,7.66,9.3,6.6,20.25,6.89,30.68,6.6,2.83-.08,4-1.32,4-4.29,0-2.81,1.14-5.14,2.21-7.4.21-.42.41-.85.6-1.27a32.84,32.84,0,0,1,8.65-11.15,4.12,4.12,0,0,0-2.2-.78c-1.51,0-3,0-4.52-.06C227.15,273.17,224.63,273.14,222.14,273.14ZM593,281.9a10.35,10.35,0,0,1-4.49-1.43,217.38,217.38,0,0,0-38.42-15.4l-1.28-.43c-2.63-.86-6.61-2.16-6.55-6.4,0-3.32,3.15-4.09,4.66-4.47s3.13-.78,4.67-1.18a136.5,136.5,0,0,1,17.9-3.74l.26,0,.27.05c3.4.61,6.16,3.1,8.84,5.5.52.47,1,.92,1.54,1.36a141.19,141.19,0,0,1,12.35,12.61l2.74,3c2.7,3,3.17,6.07,1.3,8.53A4.59,4.59,0,0,1,593,281.9Zm-23.36-29.46a134,134,0,0,0-17.16,3.62c-1.55.39-3.09.79-4.64,1.17-1.81.45-2,.67-2,1,0,1.4,1.19,2,4.08,3,.45.15.89.29,1.29.44a219.76,219.76,0,0,1,38.94,15.61c2.71,1.39,3.19,1.22,3.79.43.76-1,.39-2.32-1.1-4l-2.75-3a135.58,135.58,0,0,0-12-12.29c-.53-.46-1.06-.94-1.59-1.41C574.26,255,572,253,569.65,252.44Z"/><circle class="cls-2" cx="130.17" cy="323.74" r="3.46"/><circle class="cls-2" cx="301.43" cy="330.4" r="3.46"/><circle class="cls-2" cx="478.92" cy="329.14" r="3.46"/><circle class="cls-2" cx="659.46" cy="328.43" r="3.46"/></svg>