<svg id="Calque_1" data-name="Calque 1" xmlns="http://www.w3.org/2000/svg" viewBox="0 0 800 433.66"><defs><style>.cls-1{fill:#1d1d1b;}.cls-2{fill:#2863ab;}.cls-3{fill:#408ccb;}.cls-4{fill:#cecccc;}</style></defs><title>Plan de travail 1</title><path class="cls-1" d="M502.11,294.71a37.47,37.47,0,0,1-42.46,31.71,39.38,39.38,0,0,1-4.69-1l-1.8,12.4a38.79,38.79,0,0,1,4.78.38,37.47,37.47,0,0,1,30.71,47.15l12.4,1.8a37.07,37.07,0,0,1,.38-4.78,37.4,37.4,0,0,1,47.15-30.7l1.8-12.41a36.9,36.9,0,0,1-4.78-.37,37.48,37.48,0,0,1-31.7-42.47,38.26,38.26,0,0,1,1-4.69l-12.4-1.8A36.93,36.93,0,0,1,502.11,294.71Z"/><path class="cls-1" d="M678.61,303.77c11,18,4.87,41.77-13.63,53a39.23,39.23,0,0,1-4.44,2.33l6.65,10.92a40.7,40.7,0,0,1,4.11-2.88c18.49-11.26,42.39-5.78,53.36,12.25a38.09,38.09,0,0,1,2.26,4.34l11.2-6.82a38.23,38.23,0,0,1-2.82-4c-11-18-4.87-41.77,13.63-53a41.87,41.87,0,0,1,4.44-2.33l-6.64-10.92a40.22,40.22,0,0,1-4.11,2.88c-18.5,11.26-42.4,5.78-53.37-12.25A38.09,38.09,0,0,1,687,293l-11.2,6.83A37.08,37.08,0,0,1,678.61,303.77Z"/><path class="cls-1" d="M287.25,296.11a37.48,37.48,0,0,1-32.84,41.59,36.86,36.86,0,0,1-4.79.24l1.46,12.45a37.42,37.42,0,0,1,46.3,32,36.73,36.73,0,0,1,.25,4.78l12.45-1.46a38,38,0,0,1-.87-4.71,37.46,37.46,0,0,1,32.84-41.59,38.74,38.74,0,0,1,4.79-.25l-1.46-12.45a38.52,38.52,0,0,1-4.72.87,37.47,37.47,0,0,1-41.59-32.84,36.86,36.86,0,0,1-.24-4.79l-12.45,1.47A38,38,0,0,1,287.25,296.11Z"/><path class="cls-1" d="M122.12,303.63a37.47,37.47,0,0,1-53,0A38.15,38.15,0,0,1,66,300l-8.86,8.87a36.67,36.67,0,0,1,3.6,3.16,37.46,37.46,0,0,1,0,53,38,38,0,0,1-3.6,3.16L66,377.06a38,38,0,0,1,3.16-3.6,37.47,37.47,0,0,1,53,0,36.67,36.67,0,0,1,3.16,3.6l8.87-8.86a38.15,38.15,0,0,1-3.61-3.16,37.47,37.47,0,0,1,0-53,36.78,36.78,0,0,1,3.61-3.16L125.28,300A36.78,36.78,0,0,1,122.12,303.63Z"/><path d="M199.69,93.31c-2.81.35-5.63.73-8.45,1-1.47.16-3.21.73-3.9-1.28a2.74,2.74,0,0,1,1.91-3.64c5.61-2.1,9.12-6.74,12.93-10.87,6.14-6.66,13.76-9.69,22.48-11s17.63-3.23,26.44-4.84c1.86-.34,4.09-1.58,5.41.61,1.64,2.72-1.28,3.14-2.68,4.2a18.79,18.79,0,0,0-5.11,5.88c-6.87,12.14-16.88,19.2-31.3,19.29-5.9,0-11.83.27-17.73.64C199.68,93.17,199.71,93.44,199.69,93.31Zm.4-5.22c22.46,1.45,38.63-1.87,44.41-18.16C227.86,71.76,210.76,70.77,200.09,88.09Z"/><path class="cls-2" d="M513.54,163.25c-1.87,9.05-2.79,18.22-4,27.29-2.86,14.81,3.47,24.06,8.74,29.29,4.66,4.59,11,3.2,16.55-1.46a45.61,45.61,0,0,0,13.33-17.68c1.67-4.1,4.61-7.27,6.83-12.38a58.52,58.52,0,0,0,13,21.16c19.82,20.22,55.09,4.7,52.06-24-.12-2.67-1.56-4.3-3.09-6.12-6.18-7.38-14.38-11.88-22.62-16.47-9.22-5.14-18.53-10.56-26-18-9-8.92-9.13-24.63-2.22-38.06,8.51-16.56,22.14-22.54,40.45-23.59,11.22-.64,18.1,3.52,25.25,10.25,0,0,16,15.85,2.72,29.14-5.13,4.52-7.4,4.54-10.79,1.87-2.37-1.86-3.71-5.73-5.6-8.68-7.66-11.9-23.24-12.93-32.57-2-3,3.51-2.76,7.52-.55,11.59,18.57,33.31,66.37,27.38,63.69,74.7-.62,10-5.69,18.21-11.34,26a68.78,68.78,0,0,0-5,7.1c-6.24,11.47-16.53,14.65-28.3,13.69-5.63-.45-11,.36-16.48.61-12.84,1.26-24.07-8-30.33-18.66-1.45-2.58-4.49-3.36-7.4-.68-5,4.61-10.1,9.11-15.33,13.45-5.85,4.85-12.46,6.83-20.12,4.88-4.56-1.15-9.38,0-14-1.6-12.19-4.26-18.11-14.32-18.11-25.52V203.57c0-19,.71-29.48,1.1-44.22A88.1,88.1,0,0,1,488,135.61c1.27-4.06,2.8-4.58,9-7.1,11.25-2.52,17-4.45,25.37-6.1"/><path class="cls-3" d="M258.8,251.34c-11.91,1.48-12.81,1.61-19.57,1.09-52.9-2.85-69.83-7.28-101.92-31-9.52-6.63-8.09-13.36-8.06-23.68.07-24.37,6.62-46.78,22.2-66.08,7.12-8.81,16.77-13.85,27.12-17,24.8-7.92,68.86-12.83,72.7,22.68,2.45,19.38-7.18,35.53-27.37,37.7-14.37,1.78-28.65,1.22-41.92-5.84-2.78-1.48-5.15-.86-7.8,1.24-9.35,7.39-13.3,19.7-9.27,30.74,2.49,6.82,8.65,8.42,14.71,10.45,14,4.72,28.17,3.33,42.31,1,3.43-.55,4.92.41,6.57,3.52C235.71,229.87,245.06,241.84,258.8,251.34ZM208.63,154h11.06c1.4,0,3.12.55,4-.83,3.46-5.37,2.68-11,.28-16.42-2-4.52-4.45-8.94-10.43-8.9-14.13.11-21.35,8.21-26.63,20.33-1.63,3.73.18,5,3.94,5.36A150.48,150.48,0,0,0,208.63,154Z"/><path class="cls-2" d="M655.52,98.32c18.67-16.93,49.78-14.21,59.63,14.31,3.22,8.4,3.21,8.4-5.71,10.54-10.27,2.47-10.33,2.51-16.13-6.6-6.23-9.79-21.6-14.63-30.61-.9a13.78,13.78,0,0,0,.49,15.33c6,8.36,14.29,13.72,23.13,18.44,5.86,3.13,11.68,6.34,17.59,9.34,22.39,11.39,26.38,34.49,15.36,55.44-7.37,14-19.85,16.49-32.41,20.44-15.08,4.75-27.32,6.46-46.29,9.16-7,.6-10,.19-15.91.19,3.63-4.32,6.55-8.15,9.86-11.62,4.64-4.86,7.2-11,10.79-16.52,1.89-2.88,3.93-3.57,7.38-3.2,7.75.85,15.41,3.29,23.42,1,17.63-5.09,27-14.46,22.35-33.87-4-15.16-31.18-18.9-43.77-25.52-9.39-4.38-13.52-12.58-16.58-21.69"/><path class="cls-2" d="M654.4,96.68c18.49-17.12,50.9-12.57,60.75,15.95,3.22,8.4,3.21,8.4-5.71,10.54-10.27,2.47-10.33,2.51-16.13-6.6-6.23-9.79-21.6-14.63-30.61-.9a13.78,13.78,0,0,0,.49,15.33c6,8.36,14.29,13.72,23.13,18.44,5.86,3.13,11.68,6.34,17.59,9.34,22.39,11.39,26.38,34.49,15.36,55.44-7.37,14-19.85,16.49-32.41,20.44-15.08,4.75-27.32,6.46-46.29,9.16-7,.6-10,.19-15.91.19,3.63-4.32,6.55-8.15,9.86-11.62,4.64-4.86,7.2-11,10.79-16.52,1.89-2.88,3.93-3.57,7.38-3.2,7.75.85,15.41,3.29,23.42,1,17.63-5.09,27-14.46,22.35-33.87-4-15.16-31.18-18.9-43.77-25.52-9.39-4.38-13.52-12.58-16.58-21.69C638.11,132.57,638.09,111.36,654.4,96.68Z"/><path class="cls-2" d="M428.32,115.08c1.17-5.84,1.33-6.64,3.1-15.52a143.8,143.8,0,0,0,2.75-16.2c.38-2.27-.18-3.74,2.69-4.55,7.06-2,13.94-4.1,21.14-5.22,4.33-.67,6,.79,4.73,5.21-8.39,28.56-14.64,57.72-27.33,85-5.29,11.4-8.5,23.94-13.08,35.82-1.85,4.78,1.43,9.92,6.46,11.64,16.19,5.55,33,8.66,49.71,11.83,2.05.39,3.39,1.18,3.81,3.06,1.72,7.65,4.91,14.45,10.78,19.85.44.4.27,1.46.54,3.32-20.52-.32-40.49.09-60.53-4.35-19.68-4.36-37-9-58.73-14.95,4.91-5.5,10.18-9.53,15-14.13a94.8,94.8,0,0,0,27.49-48.83c.59-2.69,1.68-5.26,2.22-7.84"/><path class="cls-2" d="M419.69,129.06c6.85-.57,8.23-2,7.56-8.71-1.44-14.45-5.62-27.85-16.89-37.87a29.73,29.73,0,0,0-8.87-5.55,51.58,51.58,0,0,0-21.9-3.66c-12.23.59-21.84,1.36-34.92,8.88a95.41,95.41,0,0,0-33.05,40.22c-1.11,2.53-.16,3.74,1.48,4.83,5.92,4,10,9.6,14.5,15,2.23,2.69,4.22,2.55,5.81-.58a70.61,70.61,0,0,0,3.49-7.49c7.25-15.62,15.84-25.4,30.27-31.84,16.84-7.8,32.85,5.17,34.14,22.4.08,3.14,1,4.37,4.75,4.44,2.56-.09,4.35,0,6.52,0Z"/><path class="cls-2" d="M338.82,239.15c13.16.9,19.46,1.27,33.08-8.55,15.82-11.41,28.68-25.11,37-43,4.42-9.54,6.92-18.13,10.87-29.7.33-3-2.48-3.1-4.68-3.44-10.55-1.61-10.55-1.61-24.82-3.25-14.68-2.21-15,.13-17.88,10-.82,2.83-1,3.81-2.39,8.23a76.71,76.71,0,0,0,9.78.73c6.75,0,9.35,3.06,8.3,6-3.05,8.43-5.83,17.29-13.68,22.78-8.8,6.16-18.29,5.13-27.59,1.39-3.59-1.44-5.48-1.27-6.54,2.66-2,7.59-6.18,14.25-10.08,21,0,0-5.59,9.12-7.53,12.49C324.68,237.59,338.82,239.15,338.82,239.15Z"/><path class="cls-3" d="M200.09,88.09c10.67-17.32,27.77-16.33,44.41-18.16C238.72,86.22,222.55,89.54,200.09,88.09Z"/><path class="cls-4" d="M94.69,245.92A93.06,93.06,0,1,0,187.74,339,93.06,93.06,0,0,0,94.69,245.92Zm0,141.7A48.65,48.65,0,1,1,143.33,339,48.64,48.64,0,0,1,94.69,387.62Z"/><path class="cls-1" d="M94.69,433.66A94.69,94.69,0,1,1,189.38,339,94.79,94.79,0,0,1,94.69,433.66Zm0-186.1A91.42,91.42,0,1,0,186.11,339,91.52,91.52,0,0,0,94.69,247.56Zm0,141.69A50.28,50.28,0,1,1,145,339,50.33,50.33,0,0,1,94.69,389.25Zm0-97.28a47,47,0,1,0,47,47A47.07,47.07,0,0,0,94.69,292Z"/><path class="cls-4" d="M298.23,245.92a93.05,93.05,0,0,0-92.93,88.27c-.08,1.58-.12,3.18-.12,4.79a93.05,93.05,0,1,0,186.1,0q0-3.6-.27-7.13A93.06,93.06,0,0,0,298.23,245.92Zm46.86,80a48.64,48.64,0,1,1-94.71,4.29c1-5.66,3.62-4.15,6.44-8.95"/><path class="cls-1" d="M298.23,433.66A94.79,94.79,0,0,1,203.54,339c0-1.63,0-3.26.12-4.87a94.6,94.6,0,0,1,94.57-89.82c49.23,0,90.7,38.41,94.41,87.44.19,2.4.28,4.83.28,7.25A94.79,94.79,0,0,1,298.23,433.66Zm0-186.1a91.32,91.32,0,0,0-91.3,86.71c-.08,1.56-.12,3.14-.12,4.71a91.42,91.42,0,1,0,182.84,0c0-2.33-.09-4.69-.26-7C385.8,284.64,345.76,247.56,298.23,247.56Zm0,141.69a50.27,50.27,0,0,1-49.45-59.37c.71-3.89,2.22-5.08,3.69-6.23a10.4,10.4,0,0,0,2.94-3.25l2.82,1.65a13.65,13.65,0,0,1-3.74,4.17c-1.26,1-2,1.58-2.5,4.25a47,47,0,1,0,91.52-4.15l3.15-.88a50.33,50.33,0,0,1-48.43,63.81Z"/><path class="cls-4" d="M501.77,245.92A93.06,93.06,0,1,0,594.82,339,93.05,93.05,0,0,0,501.77,245.92Zm0,141.7A48.65,48.65,0,1,1,550.41,339,48.64,48.64,0,0,1,501.77,387.62Z"/><path class="cls-1" d="M501.77,433.66A94.69,94.69,0,1,1,596.46,339,94.79,94.79,0,0,1,501.77,433.66Zm0-186.1A91.42,91.42,0,1,0,593.19,339,91.52,91.52,0,0,0,501.77,247.56Zm0,141.69A50.28,50.28,0,1,1,552.05,339,50.33,50.33,0,0,1,501.77,389.25Zm0-97.28a47,47,0,1,0,47,47A47.07,47.07,0,0,0,501.77,292Z"/><path class="cls-4" d="M705.31,245.92A93.06,93.06,0,1,0,798.36,339,93.05,93.05,0,0,0,705.31,245.92Zm0,141.7A48.65,48.65,0,1,1,754,339,48.64,48.64,0,0,1,705.31,387.62Z"/><path class="cls-1" d="M705.31,433.66A94.69,94.69,0,1,1,800,339,94.79,94.79,0,0,1,705.31,433.66Zm0-186.1A91.42,91.42,0,1,0,796.73,339,91.52,91.52,0,0,0,705.31,247.56Zm0,141.69A50.28,50.28,0,1,1,755.59,339,50.33,50.33,0,0,1,705.31,389.25Zm0-97.28a47,47,0,1,0,47,47A47.07,47.07,0,0,0,705.31,292Z"/><path class="cls-1" d="M238.5,255.47l-.31,0c-10-.42-19.43-.95-28.47-1.95-24.11-2.29-44.56-7.23-68.34-24.78l-.64-.46q-1.1-.78-2.19-1.59l0-.07c-8.29-6.91-13.15-16.67-13.12-26.69.07-25.7,8.27-49.38,23.69-68.49,6.57-8.13,15.76-13.91,28.12-17.69,19.55-6.25,46.07-9.3,61.77.91,7.86,5.11,12.42,13,13.55,23.5,1.39,11-1,21.05-6.73,28.3-5.23,6.61-13,10.64-22.46,11.65-17.53,2.17-31.23.25-43.09-6.06-1.58-.84-3.06-1-5.58,1-8.81,7-12.28,18.4-8.61,28.44,2,5.43,6.72,7,12.2,8.8l1.23.41c14.18,4.77,28.78,3,41.34,1,4.81-.78,7,1.27,8.7,4.58,6.41,12.14,14.31,24.73,28.55,34.59l5,3.47-6.1.25c-6.57.26-9.18.44-11.08.57s-3.32.23-7.41.32Zm-31.67-6.38c8.16.89,16.72,1.39,26,1.95l5.78.34c3.92-.09,5.2-.18,7.12-.31h0c1.24-.08,2.78-.19,5.48-.32-12.18-9.84-19.55-21.87-25.2-32.57-1.3-2.46-2-2.85-4.44-2.46-13,2.1-28.23,3.92-43.29-1.13l-1.21-.41c-5.67-1.87-12.1-4-14.76-11.28-4.27-11.7-.29-25,9.92-33,2.2-1.74,5.63-3.78,10-1.44,11.08,5.9,24,7.68,40.7,5.61,8.39-.9,15.19-4.4,19.72-10.13,5.05-6.38,7.14-15.36,5.88-25.28-1-9.24-4.94-16.14-11.72-20.56-14.5-9.43-39.63-6.41-58.33-.43-11.57,3.54-20.12,8.89-26.15,16.36-14.84,18.37-22.72,41.17-22.79,65.93,0,9.56,5.08,18.9,13.68,25.11l.48.34,0,0h0C165.05,240.43,184.53,246.35,206.83,249.09Zm14.1-92c-.42,0-.8,0-1.13-.06l-.8,0H208a152.77,152.77,0,0,1-18-.47c-1.9-.18-4.56-.64-5.8-2.72-.86-1.46-.81-3.26.16-5.5,4.35-10,11.52-21.43,28.5-21.55H213c7.74,0,10.65,6.57,12.22,10.11,3.12,7.06,3,13.07-.44,18.36A4.19,4.19,0,0,1,220.93,157.12ZM219,152.93c.36,0,.73,0,1.11.06a5.07,5.07,0,0,0,1.23,0c2.6-4.07,2.64-8.67.08-14.45-2.22-5-4.31-7.72-8.54-7.68-11.73.08-18.9,5.62-24.78,19.1-.5,1.15-.45,1.67-.39,1.77s.33.53,2.64.74a149.65,149.65,0,0,0,17.53.45H219Z"/><path class="cls-3" d="M225.36,177.41c15.15-1.49,26.73-17.28,26.7-29.89,0-8.35.38-14.25-4.06-22.09-1.34-2.37-.41-4.8,3.08-5.81a82.85,82.85,0,0,1,21.31-3c44.18-4.25,76.81,39,68.89,80.44-3,20-15.26,36.42-29.84,50.52-1.71,1.65-4.2,2.28-6.8,2.43-12.65.77-30.93,1.72-43.57,2.69-6.3.48-6.44-3.1-10.59-6.27-12.41-9.45-17.73-18.77-24.33-32.6C219.75,200.42,225.36,177.41,225.36,177.41Zm55,36.22c18.41,2.19,28-12.69,27.42-27.34-.42-10.36-13.37-28.15-23.23-31.66a10.67,10.67,0,0,0-6.58.14c-15.42,4.22-21.26,16.28-24.8,30.16-2.28,8.92-1.62,17.31,7.12,22.64C266.58,211.4,273.24,214.7,280.37,213.63Zm-19.3,39.08c-7.24-3.56-6.44-3.1-10.59-6.27-12.41-9.45-17.73-18.77-24.33-32.6m34.92,38.87c-7.24-3.56-6.44-3.1-10.59-6.27"/><path class="cls-1" d="M260,252.92c-3.57,0-4.93-1.54-6.61-3.44a20,20,0,0,0-3-2.89l0,0c-12.82-9.76-18.19-19.69-24.37-32.66-6.36-13.32-.86-36.31-.81-36.54l0-.11h.12c15-1.47,26.58-17.19,26.55-29.73q0-1,0-2c0-7.47,0-12.87-4-20a3.81,3.81,0,0,1-.37-3.37,5,5,0,0,1,3.55-2.67,82.8,82.8,0,0,1,21.34-3,60,60,0,0,1,28.95,4.26,63.8,63.8,0,0,1,22.84,16.2,70.32,70.32,0,0,1,17.27,60.18c-2.59,17.32-12.09,33.4-29.89,50.61-1.53,1.48-3.79,2.29-6.9,2.48l-12.11.7c-10.53.61-22.47,1.29-31.46,2C260.69,252.9,260.32,252.92,260,252.92Zm-7-4.42.68.77c1.76,2,3.05,3.45,6.83,3.31l-.51-.25C255.56,250.19,254.57,249.7,252.93,248.5ZM251.41,247c3.05,2.33,3.05,2.33,8.66,5.08l1,.51c9-.69,20.91-1.37,31.42-2l12.11-.71c3-.18,5.22-1,6.7-2.39,17.74-17.15,27.21-33.17,29.79-50.42a70,70,0,0,0-17.2-59.91A63.52,63.52,0,0,0,301.2,121a59.63,59.63,0,0,0-28.8-4.23,82.21,82.21,0,0,0-21.27,3,4.72,4.72,0,0,0-3.33,2.48,3.46,3.46,0,0,0,.34,3.09c4.1,7.24,4.09,13,4.08,20.19v2c0,12.64-11.62,28.48-26.72,30-.41,1.76-5.28,23.48.8,36.21,6.17,12.93,11.52,22.83,24.28,32.54,0,0,0,0,0,0ZM283.91,214a30.41,30.41,0,0,1-3.53-.22c-7.2,1.07-13.94-2.29-20.16-6.08-7.58-4.62-9.94-12.09-7.2-22.82,3.18-12.47,8.63-25.81,24.92-30.28a10.89,10.89,0,0,1,6.68-.13c9.83,3.49,22.91,21.33,23.33,31.8.34,8.54-2.76,16.7-8.3,21.82A22.57,22.57,0,0,1,283.91,214Zm-3.54-.55h0c7.52.89,14.1-1.05,19-5.61,5.48-5.06,8.54-13.12,8.2-21.56-.41-10.38-13.37-28.05-23.11-31.52a10.62,10.62,0,0,0-6.48.15c-16.14,4.42-21.54,17.66-24.69,30-2.74,10.72-.5,17.86,7,22.46,6.17,3.77,12.87,7.11,20,6Z"/><path class="cls-1" d="M260,254.45c-4.31,0-6.08-2-7.8-3.95a18.46,18.46,0,0,0-2.74-2.69l0,0c-13.09-10-18.55-20.06-24.83-33.21-6.59-13.81-1.14-36.6-.91-37.57l3.65-.27c-.06.22-5.74,23.66.32,36.37,6.27,13.13,11.31,22.45,23.83,32h0l.81.62c2.93,2.24,2.93,2.24,8.39,4.92l.67.33c9-.68,20.7-1.35,31.08-1.95,4.31-.24,8.41-.48,12.06-.7,2.65-.16,4.52-.8,5.72-2,17.49-16.91,26.81-32.65,29.34-49.55a68.48,68.48,0,0,0-16.81-58.64c-13.33-14.64-31.18-21.7-50.24-19.87a81.1,81.1,0,0,0-21,3c-3.69.95-3.65,2.35-3.93,3s.12.69.38,1.15l-1.47.84c-.89-1.57-1.81-3.61-1.21-5.08.48-1.17,2.41-2.37,5.29-3.2a84.54,84.54,0,0,1,21.74-3.06c19.73-1.89,39.08,5.74,52.95,21A71.84,71.84,0,0,1,343,197.39c-2.64,17.61-12.28,34-30.33,51.42-1.81,1.74-4.38,2.69-7.88,2.91l-12.06.7c-10.55.6-22.5,1.29-31.48,2C260.79,254.43,260.39,254.45,260,254.45Zm23.91-38.91a32.66,32.66,0,0,1-3.52-.2c-7.59,1-14.57-2.41-21-6.32-8.23-5-10.81-13-7.89-24.51,3.29-12.9,9-26.71,26-31.38a12.4,12.4,0,0,1,7.6-.1c10.48,3.73,23.9,22,24.35,33.19.36,9-2.93,17.59-8.79,23A24.1,24.1,0,0,1,283.92,215.54Zm-3.57-3.62.23,0c7.06.84,13.21-1,17.8-5.2,5.15-4.76,8-12.38,7.71-20.38-.39-9.71-13-26.89-22.1-30.13-1.51-.54-3.12-.49-5.56.18-15.37,4.21-20.56,17-23.61,28.94-2.54,10-.52,16.57,6.37,20.77,5.93,3.62,12.33,6.84,18.93,5.83Z"/><path class="cls-1" d="M330.55,146.1c-1.55,0-3.07-.88-4.53-2.64L324,141c-3.74-4.59-7.27-8.93-12.05-12.11-1-.7-4.2-2.81-2.21-7.35a97.74,97.74,0,0,1,33.74-41.07l.16-.1c13.13-7.54,22.72-8.52,35.84-9.15A53.86,53.86,0,0,1,402.25,75,31.69,31.69,0,0,1,411.72,81c10.23,9.1,15.81,21.55,17.56,39.2.35,3.47.25,6.17-1.35,8.09s-4.29,2.54-8.08,2.85H410.8c-1.48,0-2.86,0-4.66,0-4.74-.1-6.76-2-6.87-6.44-.63-8.32-5.18-16-11.88-19.93A20.32,20.32,0,0,0,368,104.1c-13.41,6-21.88,14.92-29.28,30.85a63.43,63.43,0,0,1-3.15,6.83l-.37.72c-1.11,2.18-2.53,3.39-4.22,3.58Zm15.22-62.22a93.58,93.58,0,0,0-32.28,39.31c-.56,1.29-.39,1.55.74,2.31,5.29,3.52,9.18,8.3,12.95,12.93.66.81,1.32,1.62,2,2.42s1.28,1.16,1.39,1.17.51-.35,1-1.37l.37-.72a65.22,65.22,0,0,0,3-6.54c7.92-17.08,17-26.59,31.35-33a24.35,24.35,0,0,1,23.13.86c7.84,4.61,13.16,13.52,13.89,23.26,0,2.13.06,2.5,2.75,2.55,1.77-.07,3.27-.06,4.73,0h8.77c3-.25,4.6-.67,5.19-1.38s.71-2.26.43-5.07C423.57,104,418.42,92.38,409,84a28,28,0,0,0-8.27-5.18,49.88,49.88,0,0,0-21.05-3.51C366.81,75.93,358.09,76.81,345.77,83.88Z"/><path class="cls-1" d="M347.73,241.62c-2.78,0-5.72-.2-9-.43h-.09c-4.39-.48-14.83-1.75-17-3.07l-1.7-1,1-1.73c1.94-3.37,7.33-12.17,7.56-12.54l1-1.77c3.45-5.9,7-12,8.82-18.65.4-1.48,1.15-3.56,3.07-4.51s4.14-.35,6.2.49c10.4,4.17,18.55,3.8,25.66-1.17,6.83-4.78,9.51-12.27,12.35-20.2l.58-1.61a1.33,1.33,0,0,0-.16-1.32c-.65-.92-2.62-1.9-6.22-1.9h-.21a71.89,71.89,0,0,1-7.64-.48l-2.16-.25-2.48-.28.76-2.38c.94-2.93,1.32-4.31,1.71-5.78.2-.72.4-1.46.67-2.39l.18-.61c3-10.3,4.51-13.17,20-10.84,14.24,1.63,14.24,1.63,24.83,3.25.38.06.82.09,1.27.12,1.75.13,3.93.29,5.23,1.85a4,4,0,0,1,.85,3.12l0,.2c-2.42,11.64-5.61,17.95-9,24.64-1,1.94-2,3.93-3,6.09-7.83,16.86-20.14,31.2-37.65,43.83C362.47,239.92,355.79,241.62,347.73,241.62Zm-8.72-4.5c12.77.87,18.62,1.26,31.7-8.18,16.92-12.21,28.81-26,36.33-42.24,1-2.22,2-4.25,3-6.21,3.24-6.42,6.3-12.48,8.61-23.52v0a9.61,9.61,0,0,0-2.33-.35c-.57,0-1.11-.08-1.59-.16-10.51-1.61-10.51-1.61-24.75-3.24-12.67-1.9-12.93-1-15.5,7.92l-.18.61c-.26.91-.45,1.63-.64,2.33-.29,1.05-.56,2.06-1,3.59,1.73.21,2,.22,7.06.43,4.56,0,8,1.3,9.6,3.64a5.38,5.38,0,0,1,.66,5.06l-.57,1.59c-2.93,8.19-6,16.66-13.86,22.18-8.23,5.76-17.88,6.28-29.52,1.61-2-.8-2.64-.74-2.86-.63s-.62.69-.95,1.92c-1.94,7.18-5.65,13.52-9.23,19.65L332,224.9c-.07.11-3.84,6.26-6.23,10.28C328.7,235.8,334.2,236.58,339,237.12Z"/><path class="cls-1" d="M456.43,250.08c-5.76,0-12.05-.63-22.36-3.09-20.48-4.89-37.46-9.1-58.8-15l-3.17-.88,2.19-2.45a112.12,112.12,0,0,1,9.83-9.47c1.83-1.62,3.55-3.15,5.24-4.78a93.34,93.34,0,0,0,26.91-47.8c.31-1.41.74-2.77,1.16-4.08s.8-2.53,1.06-3.74l9.29-44.17,3.63-18.12a121.2,121.2,0,0,0,2.19-13.37c.08-.54.11-.91.15-1.25.15-1.71.36-4,4-5.07l2.88-.82a151.88,151.88,0,0,1,18.51-4.46c1.12-.17,4.52-.7,6.39,1.45s.92,5.31.61,6.36c-2.09,7.12-4.09,14.4-6,21.45-5.81,21.25-11.83,43.22-21.42,63.86a205.44,205.44,0,0,0-8,21.39c-1.57,4.72-3.19,9.59-5,14.3a5.88,5.88,0,0,0,.22,4.64,8.61,8.61,0,0,0,5,4.34c15.67,5.37,32.23,8.5,48.25,11.53l1.18.22c1.13.22,4.59.87,5.43,4.62,1.73,7.74,4.59,12.88,9.9,17.75l1,.91-.44,1.29c-.49,1.39-1.19,1.44-5.12,1.7a76.81,76.81,0,0,0-8.68.93l.17,1.11-2.4,0c-6.53-.1-11.26.16-15.44.4C461.84,249.94,459.2,250.08,456.43,250.08ZM379.62,229c19.78,5.39,36,9.4,55.4,14,14.67,3.51,20.56,3.18,29.49,2.69,4-.23,8.57-.47,14.7-.42,1.39-1,4.33-1.46,10.63-1.91-4-4.61-6.53-9.83-8.07-16.75-.12-.53-.25-1.13-2.2-1.49l-1.18-.23c-16.16-3.05-32.87-6.21-48.82-11.68a12.62,12.62,0,0,1-7.37-6.47,9.92,9.92,0,0,1-.33-7.84c1.79-4.62,3.39-9.45,4.95-14.12A204.26,204.26,0,0,1,435,163c9.44-20.33,15.41-42.13,21.18-63.22,1.94-7.06,3.94-14.37,6-21.52.59-2,.24-2.52.24-2.52s-.49-.44-2.7-.1a147.22,147.22,0,0,0-18,4.35l-2.89.82c-.94.27-.94.27-1.06,1.5,0,.44-.08.91-.16,1.41a120.79,120.79,0,0,1-2.24,13.67l-3.63,18.13-9.29,44.19c-.3,1.4-.74,2.79-1.17,4.13s-.79,2.49-1.06,3.73a97.41,97.41,0,0,1-28.06,49.85c-1.75,1.69-3.59,3.32-5.37,4.9C384.44,224.4,382,226.56,379.62,229Z"/><path class="cls-1" d="M308.06,251.19l-.5-3.23c.52-.08,52-8.17,61.39-17.26l2.27,2.35C361.07,242.86,310.22,250.86,308.06,251.19Z"/><ellipse class="cls-2" cx="516.65" cy="93.68" rx="12.24" ry="20.55" transform="translate(343.85 589.51) rotate(-81.06)"/><path class="cls-1" d="M585.45,249.68c-13.21,0-23.88-10-29.62-19.8a2.38,2.38,0,0,0-1.63-1.31,3.28,3.28,0,0,0-2.62,1.11c-5.43,5-10.47,9.42-15.41,13.51-6.65,5.52-14,7.29-21.92,5.29a26.58,26.58,0,0,0-5.88-.54,25.93,25.93,0,0,1-8.33-1.11c-12.2-4.27-19.48-14.53-19.48-27.44V203.57c0-13.09.33-22.34.66-31.28.16-4.18.31-8.38.43-13,.2-7.28,1.64-15,4.55-24.3,1.53-4.87,3.75-5.77,9.71-8.18l.82-.3c5.17-1.16,9.24-2.21,12.82-3.14,4.32-1.11,8-2.08,12.6-3l3.05-.6-9.46,43.88c-1.43,6.91-2.32,14-3.18,20.93q-.37,3.1-.78,6.2c-2.1,10.9.65,20.14,8.16,27.56,4.95,4.89,11.29.54,13.79-1.56a43.65,43.65,0,0,0,12.75-16.89,39.05,39.05,0,0,1,3.3-6,47.65,47.65,0,0,0,3.56-6.4l2-4.67,1.75,4.78a56.67,56.67,0,0,0,12.6,20.45,28.35,28.35,0,0,0,32.72,5.7c8.66-4.08,17.37-13.6,15.84-28.06-.09-2-1.09-3.2-2.47-4.84l-.15-.18c-5.83-7-13.5-11.23-21.61-15.75l-.44-.24c-9.61-5.36-18.87-10.79-26.44-18.29-9.26-9.19-10.31-25.44-2.59-40.45,8.16-15.87,21.16-23.49,42.15-24.69,12-.67,19.36,3.83,26.77,10.8.38.39,8.61,8.64,8.64,18.69a18.47,18.47,0,0,1-5.88,13.39c-5.7,5-9.08,5.51-13.5,2-1.92-1.52-3.17-3.9-4.38-6.2-.56-1.07-1.09-2.08-1.68-3a18.14,18.14,0,0,0-14-8.63,18.54,18.54,0,0,0-15.31,6.83c-2.23,2.61-2.33,5.56-.31,9.29,7.23,13,19.26,19.86,30.89,26.52,17.06,9.76,34.71,19.86,33,49.26-.69,11.06-6.42,19.76-11.73,27.05-.43.59-.88,1.18-1.33,1.78a43.89,43.89,0,0,0-3.48,5.09c-6,10.94-16.15,15.9-30.27,14.76a71.24,71.24,0,0,0-11.2.27c-1.67.14-3.34.26-5,.34A25,25,0,0,1,585.45,249.68Zm-31.54-25.22a5.82,5.82,0,0,1,.93.07,6.43,6.43,0,0,1,4.54,3.33c5.44,9.3,15.78,18.85,28.34,17.62,1.75-.09,3.37-.21,5-.34a73.61,73.61,0,0,1,11.84-.27c12.54,1,21.16-3.12,26.35-12.64a47.24,47.24,0,0,1,3.81-5.6c.44-.58.87-1.15,1.29-1.73,6.17-8.46,10.39-15.93,11-24.88,1.52-26.87-13.55-35.49-31-45.47-12.11-6.94-24.64-14.11-32.44-28.1-3.57-6.58-1.54-11.19.78-13.91a22.56,22.56,0,0,1,18.7-8.25,22.19,22.19,0,0,1,17.14,10.49c.68,1,1.28,2.19,1.86,3.29,1,2,2,3.91,3.29,4.89,2.16,1.69,3.24,2.54,8.18-1.8a14.45,14.45,0,0,0,4.58-10.38c0-8.34-7.32-15.7-7.39-15.78-6.79-6.39-13.16-10.26-23.7-9.66-19.37,1.11-31.32,8-38.75,22.48-6.9,13.41-6.16,27.75,1.84,35.68,7.2,7.13,16.2,12.4,25.55,17.62l.44.24c8.08,4.5,16.44,9.16,22.75,16.7l.15.17c1.53,1.82,3.27,3.89,3.42,7.16,1.45,13.76-5.51,26.09-18.18,32.07a32.41,32.41,0,0,1-37.39-6.56A59.23,59.23,0,0,1,555,193.23c-.59,1-1.18,2-1.74,2.85a35.42,35.42,0,0,0-3,5.38,47.61,47.61,0,0,1-13.91,18.48c-6.89,5.79-14.28,6.29-19.3,1.34-8.53-8.44-11.67-18.92-9.31-31.13.25-1.93.5-4,.76-6,.87-7,1.76-14.19,3.23-21.27v0l8.15-37.77c-3.17.7-6.07,1.45-9.31,2.29-3.58.92-7.63,2-12.79,3.13l-.35.14c-5.85,2.37-6.42,2.67-7.34,5.61-2.79,8.93-4.18,16.3-4.36,23.19-.13,4.63-.28,8.84-.43,13-.35,9.32-.67,18.12-.67,31.14v15.82c0,11.26,6.11,19.86,16.75,23.58a22.44,22.44,0,0,0,7.06.88,29.54,29.54,0,0,1,6.8.67c6.65,1.69,12.64.23,18.31-4.47,4.88-4.05,9.87-8.42,15.25-13.38A7.59,7.59,0,0,1,553.91,224.46Z"/><path class="cls-1" d="M520.1,107.84a36.42,36.42,0,0,1-5.61-.45c-12.29-1.93-21-9.47-19.76-17.16.6-3.82,3.55-7,8.3-8.88a32.85,32.85,0,0,1,30.36,4.78c3.94,3.27,5.78,7.17,5.18,11C537.55,103.61,529.86,107.84,520.1,107.84Zm-6.84-25a24.4,24.4,0,0,0-9,1.59c-3.64,1.46-5.87,3.71-6.29,6.35-.89,5.68,6.91,11.83,17,13.42s19.44-1.86,20.34-7.54c.41-2.64-1-5.47-4-8a27.28,27.28,0,0,0-13-5.44A32.37,32.37,0,0,0,513.26,82.8Z"/><path class="cls-1" d="M633.32,246.18c-1.34,0-2.6,0-3.93-.06s-2.95-.07-4.73-.07h-4.39l2.83-3.36c1.15-1.37,2.24-2.7,3.28-4,2.24-2.74,4.36-5.32,6.66-7.74,2.92-3.06,5-6.67,7.14-10.49,1.08-1.89,2.2-3.86,3.42-5.74,2.22-3.4,4.91-4.59,9.31-4.11,2,.22,4,.54,5.94.85,5.73.93,11.13,1.8,16.69.2,18.63-5.38,24.9-14.78,20.93-31.44-2.54-9.66-16.47-14.46-28.76-18.69a106.74,106.74,0,0,1-14-5.49c-10.27-4.79-14.51-13.77-17.53-22.76-.7-1.65-5.68-15.71,16.75-38.07l0-.06a40,40,0,0,1,36.54-9.38C702.42,89,712.45,98.56,717.08,112c1.8,4.69,2.72,7.07,1.59,9.21s-3.68,2.77-8.75,4c-11.11,2.66-12.13,2.24-18.33-7.49a18,18,0,0,0-14.5-8.45H677c-5,0-9.34,2.61-12.59,7.57a11.75,11.75,0,0,0,.44,13c5.93,8.31,14.29,13.48,22.43,17.83l5,2.7c4.1,2.2,8.33,4.48,12.54,6.62,10.33,5.26,17.46,13.24,20.59,23.09,3.43,10.78,1.89,23.26-4.35,35.12-7,13.38-18.64,16.89-29.86,20.29l-3.75,1.15c-15.14,4.76-27.51,6.52-46.23,9.17l-.38.06C637.75,246.11,635.44,246.18,633.32,246.18ZM629,242l.53,0a86.14,86.14,0,0,0,10.9-.26l.28,0c18.52-2.63,30.76-4.37,45.57-9,1.27-.4,2.54-.78,3.8-1.16,10.89-3.3,21.19-6.42,27.42-18.28,5.73-10.89,7.18-22.25,4.08-32-2.8-8.78-9.21-15.94-18.55-20.68-4.25-2.17-8.51-4.46-12.62-6.68l-5-2.69c-8.59-4.58-17.42-10.06-23.84-19.06a15.92,15.92,0,0,1-.53-17.63c4-6.08,9.67-9.42,16-9.42h.12c6.92.05,14,4.11,17.92,10.35,2.68,4.21,4,6.27,5.42,6.83s3.9,0,8.43-1.11c2.89-.69,5.79-1.39,6.17-1.93.22-.6-.81-3.3-1.82-5.91-4.19-12.13-13.18-20.71-24.69-23.59a35.86,35.86,0,0,0-32.74,8.39c-21.07,21-15.9,33.43-15.84,33.55l.08.21c2.74,8.16,6.51,16.29,15.51,20.49A104.1,104.1,0,0,0,669,157.7c13.26,4.56,28.29,9.73,31.4,21.56,4.48,18.84-3.08,30.38-23.77,36.35-6.43,1.86-12.55.87-18.47-.08-1.88-.31-3.83-.62-5.73-.83-2.87-.31-4.09.2-5.44,2.29-1.16,1.77-2.25,3.68-3.29,5.52-2.2,3.87-4.47,7.86-7.75,11.29-2.19,2.3-4.26,4.83-6.45,7.51Z"/><path class="cls-3" d="M88.64,330.34c8-11.92,17.08-22.9,25.42-34.49,3.73-5.19,3.29-15.57-1-21.88a48.08,48.08,0,0,0-10.38-11.64C85,248.86,77.15,218.54,71.85,197.63a79.83,79.83,0,0,1,6.91-56.37c8.66-16.88,19.1-32.54,30.2-47.76C127.36,66.86,159.3,51,169.77,18.83a5.17,5.17,0,0,1,3.35-3.15c14.85-6.17,30.66-9,46-13.38,4.2-1.2,4.44,2,4.06,4.63-2.89,19.47-6.89,37.83-22.5,52.47a372.84,372.84,0,0,0-54,63.37c-9.55,14.15-19.89,28.2-23.31,45.68-5,25.5.31,46.09,22.78,61.51,16.63,11.41,36.12,18.06,56.11,20.66,16.29,2.13,29.42,1.92,44.57,2.81,8.64.5,17.17-2.59,25.69-3.79,6.66-.94,12.94-1.32,18.7,3.6,3.36,2.88,8.09,3.2,12.45,3.8,18.59,2.58,37.07,5.93,55.92,6.39,10.58.26,21.18,1.35,31.73,1.62,26.39.67,52.75,2.91,79.2,1.27,15.25-.94,30.05-4.3,45-6.67A122.87,122.87,0,0,0,554,247.3c3.49-1.83,8.25-1.93,12.36-1.69,17.07,1,33.87-2.37,50.85-2.92,10.29-.33,17.61,4.76,24.69,10.17,18.83,14.41,37.18,29.47,57.26,42.15,11.87,7.5,18.42,19.07,23.43,31.81,8.29,20.67,1.35,34.11-22,28.46-8.15-2.31-16.84-3.92-24-8.68-11.45-7.61-24.48-9.7-37.25-9.59-29.42.27-58.87-1.78-88.24.62-37.46,2.83-31.81,19.93-77.5,11.23-14.18-2.41-28.43-4.35-42.53-7.13-10.73-2.11-21.26-5.25-32.11-6.87-16-2.38-32-5-48.06-7.07-15.41-2-26.62,4.29-36.7,14.78-3.17,3.3-6.43,6.72-10.23,9.15-9.31,5.95-18.64,3.75-26.25-5.64a26.85,26.85,0,0,1-3-4.55c-4.5-8.74-9.88-13-21-10.13-10.67,2.77-22.34,1.27-33.43,2.72-30.19,4-60.82,2.56-90.88,7.76-12.65,2.2-25.31,4-38.19,3.82a19,19,0,0,1-10.58-3S86.42,333.64,88.64,330.34ZM703,328.91c-.44-3.72-.44-3.73-3.12-4.89a224.39,224.39,0,0,0-45.43-14.39c-19.2-3.74-38.64-6.68-58.39-6-30.25,1-60.41,3.24-90.11,9.24C493.66,315.33,481,317,469.7,323.21c-2.25,1.23-3.88.31-5.15-.9-37.83-27.11-82.31-41.58-127.67-48.91-6.07-.94-12.4-.22-18.6-.2-2.06,0-4,.25-4.62,2.87-.64,2.81,1.88,2.85,3.2,3.58,28.68,13.53,60.51,17.41,90,28.82,22.7,8.78,45.56,17.07,67.51,27.68,3,1.46,5.86,3.24,9.34,2.21.82-3.28-3-3.71-3.23-6.62,3-1.23,6.05-2.86,9.27-3.69a555.83,555.83,0,0,1,92.77-15.68c19-1.63,37.9-.82,56.91,1.22A273.26,273.26,0,0,1,682.86,322C689.58,323.81,695.38,328.14,703,328.91ZM223.39,278c-2.82-1.64-3.3-2.45-5.86-2.68-17-.16-34-1.25-50.26,5.83-4,1.74-7.24,3.48-7.59,8.19-.38,5,2.69,8,6.37,10.58,11,7.81,23.56,8.24,36.26,7.9,4.28-.12,6.54-2.4,6.58-6.92,0-3.31,1.69-6.12,3-9.07C214.38,286.46,218.22,282.25,223.39,278Zm377.08-26.49c-9.33,1.15-17.35,3.57-25.45,5.56-1.68.41-3.84.91-3.84,3.17-.06,3.92,4.53,4.72,7.47,5.81a248.42,248.42,0,0,1,44.23,17.71c2.59,1.34,5,2.41,6.88-.07s.41-5.19-1.36-7.13c-5.53-6.06-10.89-12.36-17.06-17.68C607.92,256,604.46,252.26,600.47,251.55Zm-338.88,59.5c-.38,5.19,1.18,7.55,4.86,8.6,2.52.71,4.86,1.11,6.07-1.85,3.18-7.79,8.42-13.93,14.59-19.41,2.34-2.08,1.75-4.42-.31-6.27-2.88-2.57-6.3-3.78-10-2C267.65,294.65,261.18,301.2,261.59,311.05Zm54.83,10.16c6.37-.33,20.59-12.91,22-19.48.8-3.69-1.51-5.8-5.36-4.29a41,41,0,0,0-20.47,17.5C310.57,318.33,312.61,321.41,316.42,321.21Z"/><path class="cls-1" d="M710.27,358.62a43.5,43.5,0,0,1-10.17-1.35c-1.65-.47-3.23-.89-4.83-1.31-6.77-1.78-13.77-3.63-19.82-7.66-9.56-6.35-21.36-9.39-36.1-9.24-10.12.09-20.39-.09-30.33-.27-19-.34-38.57-.69-57.77.87a82.06,82.06,0,0,0-30,7.68c-10.9,4.72-20.3,8.81-48,3.52-5-.84-10-1.64-15.08-2.43-9-1.43-18.34-2.9-27.46-4.69-4.35-.86-8.72-1.9-13-2.9-6.22-1.48-12.66-3-19.06-4-4.72-.7-9.43-1.42-14.13-2.13-11.1-1.7-22.58-3.44-33.9-4.94-13.1-1.72-23.88,2.65-35,14.18l-.18.19c-3.19,3.32-6.49,6.75-10.42,9.26-10.06,6.43-20.6,4.22-28.94-6.08a29,29,0,0,1-3.22-4.89c-4-7.78-8.34-11.77-18.66-9.09-6.54,1.7-13.44,1.85-20.11,2a127.72,127.72,0,0,0-13.58.78c-13.59,1.78-27.46,2.49-40.88,3.18-16.43.84-33.43,1.71-49.92,4.57-14.21,2.46-26.21,4.06-38.56,3.84a21,21,0,0,1-11.66-3.31l-1.7-1.1,1.09-1.71c.24-.38,5.82-9.13,8-12.42h0c4.82-7.18,10.1-14.11,15.2-20.82,3.41-4.47,6.93-9.09,10.26-13.72s2.74-14-1-19.54c-2.54-3.74-5.71-8-9.92-11.15C83,249.9,75.1,218.75,69.87,198.13A82.14,82.14,0,0,1,77,140.32c7.63-14.89,17-29.7,30.36-48,7.3-10.57,16.81-19.57,26-28.28,14.55-13.77,28.3-26.79,34.51-45.83a7.19,7.19,0,0,1,4.51-4.39c10.17-4.24,20.89-6.93,31.26-9.53,4.93-1.23,10-2.51,15-3.93,2.18-.63,3.92-.39,5.18.71s1.89,3.3,1.46,6.18c-2.9,19.57-6.86,38.4-23.12,53.66a370.57,370.57,0,0,0-53.7,63l-2.46,3.64c-8.6,12.64-17.49,25.72-20.54,41.3-5.22,26.69,1.75,45.57,21.94,59.42,15.44,10.6,34.53,17.63,55.21,20.33,11,1.44,20.47,1.79,30.44,2.16,4.51.17,9.17.34,14,.63,5.41.32,10.73-.84,16.37-2.07,2.91-.63,5.92-1.28,8.92-1.7,6.75-1,13.88-1.42,20.31,4.07,2.53,2.17,6.14,2.64,10,3.14L304,255c3.94.55,7.89,1.13,11.83,1.71,14.32,2.11,29.12,4.3,43.85,4.66,5.36.13,10.8.48,16.05.81s10.48.68,15.68.81c7.62.19,15.36.52,22.84.84,18.42.78,37.46,1.6,56.18.43,10.68-.66,21.36-2.56,31.7-4.4,4.3-.76,8.75-1.55,13.15-2.25a120.61,120.61,0,0,0,37.8-12.14c4.17-2.18,9.66-2.14,13.43-1.92,10.21.6,20.57-.41,30.59-1.4,6.56-.64,13.34-1.31,20.07-1.52,10.72-.36,18.44,4.81,26,10.59,4.08,3.12,8.14,6.28,12.21,9.43,14.38,11.18,29.26,22.73,44.9,32.61,13.37,8.45,20,22,24.24,32.79,4.75,11.84,4.65,21.51-.27,27.19C721.9,355.94,717.72,358.62,710.27,358.62ZM640.3,335c15.12,0,27.36,3.25,37.42,9.93,5.48,3.65,12.15,5.41,18.6,7.11,1.61.43,3.22.85,4.81,1.31,9.52,2.3,16.46,1.36,20-2.73,3.87-4.48,3.72-12.65-.43-23-4.29-10.9-10.33-23.08-22.63-30.84-15.81-10-30.77-21.6-45.23-32.84q-6.08-4.72-12.19-9.42c-7.21-5.51-13.93-10.06-23.38-9.75-6.59.21-13.31.87-19.8,1.51-10.18,1-20.7,2-31.23,1.41-3.28-.19-8-.25-11.3,1.46a124.43,124.43,0,0,1-39.05,12.56c-4.36.69-8.8,1.48-13.08,2.24-10.45,1.86-21.25,3.78-32.15,4.45-18.94,1.17-38.09.36-56.61-.43-7.47-.32-15.19-.65-22.77-.84-5.28-.13-10.65-.48-15.84-.81s-10.61-.68-15.89-.81c-15-.36-29.91-2.57-44.35-4.7-3.93-.58-7.86-1.16-11.8-1.7l-1.41-.19c-4-.53-8.63-1.13-12.09-4.08-5.14-4.4-10.78-4-17.08-3.14-2.85.41-5.78,1-8.62,1.66-5.66,1.23-11.52,2.5-17.48,2.15-4.77-.28-9.41-.46-13.9-.62-10.07-.38-19.59-.73-30.82-2.2-21.32-2.78-41-10.05-57-21-21.69-14.89-29.2-35.09-23.63-63.58,3.21-16.4,12.34-29.82,21.17-42.81l2.46-3.62a374.48,374.48,0,0,1,54.28-63.72c15.31-14.36,19.09-32.45,21.88-51.28.29-2-.11-2.5-.12-2.51a2.62,2.62,0,0,0-1.35.15c-5,1.44-10.14,2.72-15.09,4-10.23,2.56-20.8,5.21-30.69,9.33-1.52.63-2,1.17-2.2,1.9-6.53,20-21.3,34-35.59,47.52-9,8.56-18.39,17.41-25.48,27.67-13.26,18.19-22.52,32.83-30.06,47.53a78.16,78.16,0,0,0-6.74,55c5.08,20,12.77,50.36,30.08,63.55,4.67,3.52,8.1,8.1,10.83,12.11,4.76,7,5.22,18.32,1,24.22-3.37,4.68-6.91,9.33-10.33,13.82-5.07,6.65-10.31,13.54-15,20.61-1.58,2.35-5,7.71-6.82,10.53a17.74,17.74,0,0,0,7.74,1.66c12,.22,23.81-1.37,37.8-3.79,16.72-2.9,33.85-3.77,50.4-4.62,13.34-.69,27.13-1.39,40.56-3.15a132.42,132.42,0,0,1,14-.82c6.74-.14,13.1-.28,19.17-1.85,13.63-3.54,19.26,3.28,23.32,11.17a24.47,24.47,0,0,0,2.77,4.19c4.93,6.09,13,11.94,23.56,5.21,3.52-2.25,6.65-5.51,9.68-8.66l.18-.18c12.07-12.56,23.93-17.31,38.44-15.4,11.36,1.5,22.85,3.25,34,4.95,4.71.71,9.41,1.43,14.12,2.13,6.57,1,13.1,2.53,19.41,4,4.19,1,8.52,2,12.79,2.87,9,1.78,18.33,3.24,27.3,4.66,5.06.8,10.13,1.6,15.18,2.45,26.53,5.05,35,1.39,45.67-3.25,7.38-3.2,15.75-6.82,31.33-8,19.39-1.58,39.1-1.23,58.16-.89,9.91.18,20.17.37,30.22.27Zm-158.69,5.74c-2.69,0-5-1.16-7.14-2.22l-1-.5c-18-8.73-37.07-16-55.47-23.05q-5.94-2.26-11.88-4.56c-12.8-5-26.31-8.55-39.38-12-16.93-4.51-34.44-9.16-50.74-16.85a4.59,4.59,0,0,0-.84-.35c-1.2-.44-4.38-1.59-3.48-5.53,1-4.45,5.07-4.46,6.6-4.47,1.83,0,3.67-.07,5.51-.14a70.85,70.85,0,0,1,13.41.37c51.95,8.39,94,24.51,128.55,49.27l.22.18c1.19,1.13,1.83,1.09,2.75.59,9.82-5.39,20.65-7.46,31.13-9.46,1.89-.36,3.79-.72,5.67-1.1,32.81-6.63,65.57-8.44,90.44-9.28,20.83-.71,41.45,2.66,58.85,6.05a226.29,226.29,0,0,1,45.85,14.52c3.5,1.5,3.83,2.28,4.34,6.47l.31,2.53-2.54-.21c-4.89-.49-9-2.33-13-4.1a52.78,52.78,0,0,0-7.47-2.91,269.22,269.22,0,0,0-43.13-8.31c-21.46-2.3-39.42-2.68-56.52-1.22A557.64,557.64,0,0,0,490.25,330a39.63,39.63,0,0,0-6.08,2.34l-.94.42q.16.18.39.39c1,1,2.78,2.74,2.05,5.69l-.28,1.13-1.12.33A9.12,9.12,0,0,1,481.61,340.71ZM329.66,275c-1.87,0-3.77.07-5.73.14s-3.77.14-5.65.14c-2.24,0-2.43.4-2.63,1.28a1.18,1.18,0,0,0,0,.45l.94.34a8.68,8.68,0,0,1,1.3.55c15.85,7.47,33.18,12.08,49.93,16.54,13.18,3.51,26.8,7.13,39.8,12.16,4,1.54,7.91,3.05,11.87,4.57,18.48,7.07,37.59,14.38,55.79,23.18l1.06.52a13.73,13.73,0,0,0,5,1.78l-.51-.52a6.41,6.41,0,0,1-2.33-4.19l-.12-1.49,1.39-.57c.93-.37,1.86-.79,2.8-1.21a43.48,43.48,0,0,1,6.71-2.56,562,562,0,0,1,93.11-15.74c17.37-1.49,35.57-1.1,57.3,1.23A274,274,0,0,1,683.4,320a56.81,56.81,0,0,1,8.06,3.12,50.77,50.77,0,0,0,8.53,3.21l-1-.42a223,223,0,0,0-45-14.26c-17.19-3.35-37.5-6.67-57.94-6-24.72.83-57.26,2.64-89.77,9.2q-2.85.57-5.71,1.11c-10.17,1.95-20.68,3.95-29.93,9-1.79,1-4.52,1.58-7.43-1.11-34-24.34-75.45-40.2-126.7-48.47A44.73,44.73,0,0,0,329.66,275Zm-13.59,48.31a5.89,5.89,0,0,1-5.21-9.38,42.84,42.84,0,0,1,21.47-18.35c3.49-1.37,5.58-.24,6.52.56,1.56,1.32,2.13,3.53,1.58,6.06-1.63,7.5-16.6,20.7-23.91,21.09h0ZM335.4,299a4.37,4.37,0,0,0-1.58.36A38.87,38.87,0,0,0,314.36,316a2.35,2.35,0,0,0-.32,2.33,2.45,2.45,0,0,0,2.27.85h0c5.53-.29,18.89-12.16,20.13-17.88a2.31,2.31,0,0,0-.24-2.08A1.27,1.27,0,0,0,335.4,299Zm-66.15,23.2a12.23,12.23,0,0,1-3.36-.58c-6.18-1.76-6.6-6.86-6.35-10.6-.35-9.55,5.17-17.19,16.4-22.71,4-2,8.36-1.15,12.22,2.3a6.65,6.65,0,0,1,2.51,4.9,5.87,5.87,0,0,1-2.2,4.41c-6.89,6.12-11.36,12-14.06,18.66A5.22,5.22,0,0,1,269.25,322.19Zm11.12-30.86a5.92,5.92,0,0,0-2.63.64c-9.83,4.83-14.44,11-14.11,19v.24c-.33,4.54.93,5.78,3.38,6.48,2.89.83,3.18.42,3.62-.65,2.94-7.21,7.75-13.62,15.12-20.17a2,2,0,0,0,.83-1.36,2.89,2.89,0,0,0-1.14-1.85A7.72,7.72,0,0,0,280.37,291.33ZM197,310c-10.94,0-22.14-1.26-32.14-8.36-3.83-2.72-7.69-6.32-7.23-12.39.47-6.27,5.29-8.38,8.82-9.91,15-6.53,30.67-6.3,45.87-6.07l5.21.07h.17a9.27,9.27,0,0,1,5,1.89c.48.3,1,.65,1.72,1.06l2.54,1.49-2.28,1.86c-5.43,4.41-8.79,8.45-10.9,13.08-.23.51-.47,1-.71,1.52-1.09,2.28-2.11,4.43-2.13,6.73-.06,5.54-3.18,8.8-8.57,8.94C200.59,310,198.81,310,197,310Zm6.63-32.73c-12.29,0-24.06.8-35.55,5.81-4.29,1.88-6.13,3.19-6.38,6.48-.29,3.82,1.9,6.18,5.52,8.75,10.62,7.53,23.12,7.86,35,7.53,3.23-.09,4.56-1.51,4.59-4.9,0-3.2,1.3-5.87,2.53-8.44.23-.49.46-1,.68-1.46a37.56,37.56,0,0,1,9.87-12.73,4.76,4.76,0,0,0-2.51-.89c-1.72,0-3.44,0-5.15-.06C209.36,277.29,206.49,277.25,203.64,277.25Zm423.42,10a11.64,11.64,0,0,1-5.12-1.63,248.55,248.55,0,0,0-43.86-17.57c-.55-.2-1-.35-1.47-.5-3-1-7.55-2.46-7.47-7.3,0-3.79,3.59-4.68,5.31-5.1s3.58-.9,5.33-1.36a156.42,156.42,0,0,1,20.44-4.27l.3,0,.31.06c3.87.69,7,3.53,10.09,6.28.59.53,1.17,1.05,1.75,1.55a159.65,159.65,0,0,1,14.11,14.4l3.12,3.45c3.09,3.38,3.63,6.94,1.49,9.75A5.26,5.26,0,0,1,627.06,287.25Zm-26.67-33.63a154.62,154.62,0,0,0-19.59,4.13q-2.65.69-5.29,1.34c-2.07.51-2.29.76-2.29,1.18,0,1.61,1.35,2.32,4.66,3.4.51.17,1,.33,1.47.5A251.55,251.55,0,0,1,623.81,282c3.09,1.59,3.64,1.4,4.33.5.86-1.14.44-2.65-1.25-4.51l-3.15-3.48a156.82,156.82,0,0,0-13.73-14c-.61-.52-1.21-1.07-1.82-1.61C605.65,256.57,603,254.22,600.39,253.62Z"/><circle class="cls-1" cx="98.64" cy="335.02" r="3.95"/><circle class="cls-1" cx="294.17" cy="342.62" r="3.95"/><circle class="cls-1" cx="496.81" cy="341.19" r="3.95"/><circle class="cls-1" cx="702.93" cy="340.38" r="3.95"/></svg>